<?xml version="1.0" standalone="no"?>
<!DOCTYPE svg PUBLIC "-//W3C//DTD SVG 20010904//EN"
 "http://www.w3.org/TR/2001/REC-SVG-20010904/DTD/svg10.dtd">
<svg version="1.0" xmlns="http://www.w3.org/2000/svg"
 width="1000.000000pt" height="1000.000000pt" viewBox="0 0 1000.000000 1000.000000"
 preserveAspectRatio="xMidYMid meet">
<metadata>
Created by potrace 1.11, written by Peter Selinger 2001-2013
</metadata>
<g transform="translate(0.000000,1000.000000) scale(0.100000,-0.100000)"
fill="#000000" stroke="none">
<path d="M7030 9241 c0 -5 24 -7 53 -6 28 2 58 -2 65 -7 7 -6 15 -8 18 -5 3 3
23 -1 45 -8 21 -8 39 -12 39 -8 0 3 6 1 13 -6 8 -6 22 -9 33 -7 11 2 45 -5 75
-16 29 -11 64 -21 76 -23 34 -5 93 -28 93 -37 0 -4 11 -8 25 -8 14 0 42 -9 62
-20 21 -11 45 -20 54 -20 9 0 27 -8 40 -18 13 -10 40 -25 59 -32 19 -8 37 -16
40 -20 3 -3 24 -14 48 -24 23 -11 42 -23 42 -28 0 -4 9 -8 20 -8 11 0 20 -5
20 -11 0 -5 5 -7 10 -4 6 3 10 1 10 -4 0 -6 7 -11 15 -11 8 0 23 -9 32 -20 10
-11 25 -20 35 -20 10 0 18 -4 18 -8 0 -5 12 -15 28 -23 15 -8 34 -22 43 -31 9
-10 24 -18 33 -18 9 0 16 -7 16 -15 0 -8 6 -15 13 -15 7 0 24 -11 39 -25 15
-14 32 -25 37 -25 6 0 15 -8 20 -17 5 -10 33 -36 62 -58 28 -22 86 -73 128
-112 42 -40 79 -73 84 -73 4 0 7 -6 7 -14 0 -7 11 -21 25 -30 14 -9 25 -21 25
-25 0 -5 20 -29 45 -54 24 -24 42 -47 39 -50 -3 -3 4 -8 15 -12 12 -3 21 -13
21 -20 0 -8 9 -19 20 -25 11 -6 20 -16 20 -22 0 -6 7 -18 15 -27 38 -39 75
-87 81 -103 3 -10 10 -18 15 -18 6 0 8 -4 4 -9 -3 -5 5 -17 17 -25 12 -9 19
-16 15 -16 -4 0 1 -10 13 -22 11 -12 20 -28 20 -35 0 -7 5 -13 10 -13 6 0 10
-7 10 -15 0 -8 4 -15 9 -15 4 0 19 -20 32 -44 13 -25 27 -42 31 -40 4 3 8 -2
8 -11 0 -9 10 -31 22 -48 12 -17 23 -37 24 -44 1 -7 9 -20 18 -29 15 -14 18
-22 15 -40 0 -4 4 -10 9 -13 5 -3 17 -22 27 -41 9 -19 23 -42 30 -50 7 -8 15
-27 19 -42 3 -15 12 -33 19 -40 8 -7 17 -25 20 -40 4 -15 14 -33 22 -42 8 -8
15 -26 15 -40 0 -14 4 -26 9 -26 11 0 37 -61 33 -78 -2 -7 4 -15 12 -18 9 -3
14 -10 11 -14 -3 -5 2 -15 11 -24 8 -9 13 -19 11 -23 -3 -5 4 -26 14 -48 11
-22 21 -49 23 -61 2 -12 14 -40 25 -62 12 -23 21 -48 21 -56 0 -8 5 -27 12
-43 6 -15 13 -37 14 -48 1 -11 12 -41 23 -68 11 -26 21 -63 23 -82 1 -19 5
-35 9 -35 7 0 29 -71 33 -110 3 -26 24 -98 34 -115 4 -5 7 -26 8 -45 1 -19 2
-35 4 -35 1 0 4 -13 6 -29 3 -16 10 -38 15 -48 5 -10 7 -23 4 -28 -3 -6 -2
-10 3 -10 5 0 9 -23 8 -51 -1 -28 2 -53 6 -56 5 -2 8 -14 8 -27 0 -12 3 -26 7
-30 8 -8 12 -33 18 -116 2 -36 4 -65 5 -65 1 0 4 -13 6 -30 8 -47 12 -70 14
-70 2 0 5 -30 14 -123 2 -23 6 -45 9 -49 4 -3 2 -14 -3 -24 -6 -10 -6 -20 -1
-23 5 -3 5 -21 1 -41 -4 -19 -5 -35 -1 -35 6 0 12 -97 15 -237 0 -46 5 -83 9
-83 5 0 5 -5 2 -11 -9 -13 -14 -319 -6 -320 3 0 40 -3 81 -5 41 -3 89 -6 105
-7 l30 -2 -1 300 c-1 331 -4 405 -16 405 -5 0 -4 9 2 20 7 14 7 20 0 20 -5 0
-10 22 -10 48 0 26 -5 53 -12 60 -9 9 -9 12 0 12 6 0 9 6 6 14 -3 8 -8 48 -10
88 -7 113 -7 118 -18 118 -5 0 -7 2 -4 6 3 3 1 22 -4 42 -5 20 -11 62 -12 92
-2 30 -9 75 -16 100 -7 25 -13 50 -14 55 -1 6 -4 15 -7 20 -4 6 -6 26 -6 45 0
19 -6 48 -12 63 -6 16 -11 34 -11 42 0 8 -4 16 -8 19 -5 3 -9 26 -11 52 -1 26
-5 53 -9 58 -14 22 -32 82 -32 107 0 14 -4 29 -10 35 -5 5 -11 26 -14 46 -2
20 -10 47 -17 60 -7 12 -12 24 -11 25 1 2 -4 17 -11 35 -6 18 -11 43 -11 56 1
13 -5 22 -13 22 -9 0 -13 6 -10 14 3 7 0 22 -7 32 -7 11 -12 27 -10 37 1 9 -3
17 -9 17 -5 0 -8 3 -4 6 3 3 -3 22 -14 41 -11 20 -18 42 -15 50 3 8 1 11 -4 8
-6 -3 -10 2 -10 12 0 10 -7 29 -16 41 -9 13 -13 26 -10 29 3 3 -6 25 -19 48
-14 23 -25 48 -25 56 0 8 -9 25 -20 39 -11 14 -20 35 -20 48 0 12 -4 22 -8 22
-4 0 -16 23 -26 50 -10 28 -22 50 -27 50 -5 0 -9 6 -9 13 0 15 -6 26 -92 175
-12 20 -27 49 -35 63 -7 15 -20 32 -28 39 -8 7 -15 21 -15 30 0 10 -4 20 -9
22 -5 2 -17 17 -27 34 -40 67 -97 149 -105 152 -5 2 -9 10 -9 18 0 8 -3 14 -7
14 -5 0 -21 21 -38 45 -16 25 -33 45 -37 45 -5 0 -8 7 -8 15 0 8 -9 20 -20 27
-11 7 -20 16 -20 21 0 4 -20 29 -45 55 -25 26 -45 50 -45 54 0 12 -246 256
-310 308 -97 79 -103 85 -119 103 -8 9 -20 17 -26 17 -6 0 -22 11 -37 25 -15
14 -32 25 -37 25 -5 0 -16 8 -23 18 -7 9 -20 18 -28 20 -8 2 -17 7 -20 11 -10
14 -100 70 -149 93 -28 12 -51 26 -51 30 0 5 -7 8 -15 8 -8 0 -15 5 -15 11 0
5 -4 8 -8 5 -5 -3 -25 6 -46 20 -20 14 -40 22 -45 19 -6 -3 -12 -1 -16 4 -8
14 -66 42 -75 36 -4 -3 -13 2 -20 10 -7 8 -16 12 -21 9 -5 -3 -9 -1 -9 5 0 6
-17 13 -37 17 -21 4 -55 15 -75 25 -21 11 -48 19 -61 19 -13 0 -27 3 -31 8 -4
4 -11 7 -14 8 -15 2 -68 17 -77 23 -5 3 -26 6 -45 7 -19 1 -35 2 -35 4 0 2
-36 11 -52 12 -7 1 -13 4 -13 8 0 4 -13 6 -30 5 -16 -1 -30 1 -30 5 0 4 -24 6
-52 5 -29 -1 -65 2 -79 6 -16 4 -31 3 -38 -4 -8 -8 -11 -8 -11 1 0 8 -20 12
-60 12 -33 0 -60 -4 -60 -9z"/>
<path d="M3037 9144 c-1 -1 -31 -3 -67 -5 -36 -2 -69 -5 -75 -8 -5 -3 -23 -6
-40 -7 -16 -1 -43 -4 -60 -7 -16 -3 -50 -7 -75 -8 -25 -1 -49 -6 -55 -9 -16
-11 -109 -35 -124 -32 -7 2 -20 0 -30 -4 -9 -4 -18 -8 -21 -9 -3 -1 -18 -7
-33 -13 -15 -7 -42 -14 -59 -17 -16 -3 -47 -15 -69 -25 -21 -11 -42 -19 -46
-18 -5 0 -21 -5 -38 -12 -16 -7 -33 -13 -37 -12 -5 1 -8 -3 -8 -8 0 -5 -7 -10
-16 -10 -8 0 -25 -5 -37 -12 -12 -7 -31 -13 -42 -15 -10 -2 -22 -8 -25 -13 -3
-5 -23 -16 -44 -25 -22 -9 -45 -23 -53 -31 -8 -8 -23 -14 -34 -14 -10 0 -19
-4 -19 -9 0 -5 -20 -19 -44 -31 -24 -11 -50 -27 -56 -35 -7 -8 -16 -13 -20
-10 -5 3 -15 -4 -23 -15 -7 -11 -17 -17 -20 -13 -4 3 -7 1 -7 -5 0 -7 -6 -12
-13 -12 -8 0 -22 -9 -32 -20 -10 -11 -22 -20 -27 -20 -4 0 -16 -8 -26 -17 -10
-10 -29 -25 -41 -33 -13 -8 -39 -27 -59 -42 -19 -16 -38 -28 -43 -28 -4 0 -10
-9 -14 -20 -3 -11 -9 -19 -13 -18 -8 3 -66 -49 -181 -159 -41 -40 -78 -73 -83
-73 -4 0 -8 -4 -8 -10 0 -5 -10 -20 -23 -33 -60 -66 -87 -97 -87 -103 0 -3
-11 -15 -25 -26 -14 -11 -25 -24 -25 -29 0 -6 -10 -20 -23 -32 -13 -12 -34
-38 -47 -57 -13 -19 -29 -40 -35 -46 -19 -20 -60 -76 -80 -108 -30 -49 -103
-159 -114 -172 -5 -6 -16 -25 -25 -42 -9 -18 -21 -32 -26 -32 -6 0 -10 -11
-10 -25 0 -14 -5 -25 -11 -25 -5 0 -16 -15 -24 -34 -8 -19 -19 -38 -25 -41 -6
-4 -8 -11 -5 -16 4 -5 2 -9 -2 -9 -8 0 -48 -78 -46 -90 0 -3 -7 -16 -16 -30
-10 -14 -25 -42 -34 -62 -10 -20 -22 -40 -27 -43 -6 -4 -8 -11 -5 -16 4 -5 -3
-23 -15 -39 -12 -16 -23 -38 -25 -49 -2 -10 -14 -40 -28 -67 -13 -27 -22 -55
-20 -61 3 -7 0 -13 -6 -13 -6 0 -11 -7 -11 -15 0 -8 -4 -15 -10 -15 -5 0 -9
-3 -8 -7 3 -13 -25 -93 -32 -93 -4 0 -7 -6 -8 -12 -1 -27 -11 -57 -31 -97 -11
-23 -18 -51 -16 -61 2 -11 0 -20 -4 -20 -10 0 -24 -43 -26 -76 0 -12 -7 -29
-14 -38 -7 -9 -11 -16 -8 -16 3 0 -1 -16 -9 -36 -8 -20 -13 -38 -10 -41 2 -3
-4 -25 -15 -50 -10 -25 -17 -49 -13 -54 3 -5 1 -9 -5 -9 -5 0 -9 -8 -9 -17 1
-24 -11 -84 -20 -97 -8 -14 -12 -32 -16 -72 -2 -17 -5 -35 -8 -40 -7 -11 -22
-87 -20 -96 1 -5 -3 -8 -8 -8 -5 0 -9 -3 -9 -7 1 -5 1 -10 0 -13 -1 -3 -4 -30
-6 -60 -4 -49 -11 -95 -15 -95 -6 0 -22 -110 -25 -165 -1 -30 -5 -68 -9 -85
-6 -28 -9 -46 -21 -130 -3 -16 -7 -86 -9 -154 -3 -67 -8 -139 -11 -158 -4 -26
-2 -32 7 -27 10 6 10 5 1 -7 -14 -18 -15 -577 -1 -586 5 -2 4 -11 -3 -19 -6
-8 -8 -14 -3 -14 5 0 9 -44 8 -97 0 -54 2 -102 4 -107 3 -5 7 -26 8 -45 3 -43
11 -95 19 -136 4 -16 8 -55 10 -85 4 -66 10 -97 32 -180 2 -8 6 -37 7 -65 2
-27 6 -57 8 -65 3 -8 11 -32 17 -53 7 -20 14 -47 16 -60 4 -23 15 -94 17 -114
1 -7 4 -13 8 -13 4 0 7 -7 8 -15 1 -8 3 -22 4 -30 1 -8 5 -15 9 -15 4 0 6 -9
4 -21 -2 -11 5 -44 17 -72 11 -29 22 -65 23 -82 1 -16 10 -48 20 -69 9 -22 19
-56 22 -75 4 -20 10 -39 15 -42 4 -3 9 -18 11 -35 2 -16 11 -42 19 -59 9 -16
21 -50 28 -75 6 -25 17 -52 24 -60 7 -8 12 -24 12 -35 -1 -11 2 -22 5 -25 12
-10 55 -109 45 -103 -6 4 -1 -6 12 -21 12 -16 22 -35 22 -44 0 -8 8 -29 19
-46 10 -17 22 -42 26 -56 4 -14 16 -37 27 -52 11 -16 17 -32 13 -37 -3 -6 0
-13 7 -18 17 -10 38 -48 38 -67 0 -8 5 -16 12 -18 6 -2 13 -15 15 -28 2 -13
12 -34 23 -45 11 -12 20 -26 20 -31 0 -5 11 -26 25 -47 14 -20 22 -37 18 -37
-3 0 5 -13 20 -28 15 -16 25 -31 22 -34 -4 -3 5 -17 19 -31 14 -15 26 -31 26
-38 0 -6 9 -20 20 -29 12 -10 19 -22 18 -27 -2 -4 7 -19 18 -31 12 -13 30 -40
40 -60 11 -20 27 -43 37 -50 9 -7 17 -19 17 -27 0 -8 9 -19 20 -25 11 -6 20
-15 20 -21 0 -9 8 -20 68 -85 12 -14 22 -29 22 -34 0 -5 9 -14 20 -20 11 -6
20 -17 20 -25 0 -7 9 -17 20 -20 11 -3 20 -10 20 -16 0 -17 114 -136 239 -249
33 -30 80 -73 104 -95 23 -22 56 -49 72 -60 16 -11 39 -30 52 -42 13 -13 30
-23 38 -23 8 0 15 -7 15 -15 0 -8 9 -15 20 -15 11 0 20 -4 20 -8 0 -5 12 -15
28 -23 15 -8 37 -24 50 -36 13 -13 28 -23 34 -23 6 0 19 -7 29 -16 9 -8 25
-17 34 -18 9 -1 20 -7 23 -13 4 -6 25 -19 47 -30 22 -11 71 -37 110 -57 38
-20 75 -36 82 -36 7 0 13 -4 13 -8 0 -5 19 -15 42 -22 24 -7 51 -18 62 -25 10
-8 24 -11 31 -9 7 3 29 -4 50 -16 21 -12 48 -23 59 -24 34 -4 80 -18 93 -28 7
-6 27 -11 45 -13 34 -2 82 -12 108 -22 27 -11 45 -14 95 -19 28 -2 56 -6 63
-9 6 -2 12 1 12 8 0 9 2 9 8 0 5 -7 28 -14 53 -16 24 -1 49 -5 54 -9 13 -7
367 -7 380 1 6 3 19 6 30 7 11 1 38 5 60 9 22 4 61 7 88 8 26 0 47 5 47 9 0 5
4 7 8 4 5 -3 31 2 58 10 27 9 63 17 79 20 17 2 40 5 52 7 12 2 29 10 39 18 9
8 19 13 21 12 1 -2 4 -3 6 -2 1 0 15 3 31 5 16 3 43 12 60 22 17 9 42 18 55
20 14 2 34 8 45 15 12 6 23 12 26 12 18 3 57 19 68 28 8 6 23 12 34 14 11 2
31 12 45 23 14 11 34 20 44 20 11 0 19 5 19 10 0 6 6 10 14 10 8 0 16 5 18 10
2 6 14 12 28 15 14 2 32 13 41 24 9 11 19 18 21 15 3 -2 20 6 39 19 19 13 42
26 52 30 9 3 17 11 17 16 0 5 14 14 30 20 17 5 30 15 30 21 0 6 10 15 23 20
37 17 87 53 133 96 13 12 25 20 27 17 3 -2 14 7 25 21 10 14 22 22 26 19 3 -3
6 2 6 12 0 10 3 16 6 13 12 -13 277 248 360 355 12 15 27 27 34 27 6 0 8 5 5
10 -3 6 -1 10 4 10 6 0 11 5 11 10 0 6 14 24 30 40 17 17 28 30 24 30 -3 0 10
16 30 36 20 20 34 39 32 43 -3 4 6 15 20 25 13 11 24 23 24 28 0 4 16 31 35
58 19 27 35 52 35 55 0 3 8 14 18 25 9 11 16 23 14 26 -1 2 9 17 23 32 14 15
25 32 25 39 0 7 4 13 9 13 5 0 15 16 22 35 7 19 16 35 20 35 4 0 19 25 34 55
14 30 29 55 33 55 4 0 16 25 27 56 10 31 25 58 32 61 7 3 15 20 19 39 3 19 10
34 14 34 8 0 34 52 32 63 -2 5 7 21 18 37 11 15 20 35 20 43 0 9 5 19 10 22 6
4 8 11 5 16 -4 5 -2 9 4 9 9 0 21 26 25 57 1 8 9 19 17 24 8 5 10 9 6 9 -4 0
-2 10 5 23 7 12 11 25 10 30 -1 4 10 29 24 57 14 27 23 54 19 60 -3 5 -1 10 6
10 7 0 9 3 6 6 -3 4 -2 15 4 26 6 11 12 27 14 36 2 9 9 31 16 47 7 17 13 32
13 35 1 3 4 10 7 15 4 6 10 29 14 53 4 23 11 42 17 42 6 0 8 9 5 20 -3 11 -1
20 4 20 5 0 9 11 9 24 0 14 5 37 12 53 6 15 12 34 14 42 1 8 6 17 11 20 4 3 8
20 7 36 0 17 3 35 7 40 3 6 10 26 14 45 4 19 11 40 15 45 4 6 7 25 5 44 -1 19
5 48 13 65 16 31 18 42 26 106 6 49 15 99 26 139 5 19 7 38 4 43 -3 4 -1 8 4
8 5 0 10 24 11 52 1 29 5 67 7 83 3 17 6 42 6 58 1 15 4 27 7 27 3 0 7 21 9
47 1 25 7 52 13 60 8 9 8 13 0 13 -6 0 -8 8 -3 23 4 12 7 59 7 104 0 46 2 83
5 83 3 0 5 26 4 58 0 31 3 65 8 74 5 10 4 19 -2 23 -6 4 -7 12 -3 18 11 17 11
57 1 57 -5 0 -6 6 -1 13 12 19 11 367 -1 367 -7 0 -8 3 -1 8 11 8 16 42 6 42
-4 0 -6 29 -6 65 1 40 -3 65 -9 65 -6 0 -4 5 4 10 8 5 10 10 5 10 -7 0 -10 43
-10 115 0 63 -3 116 -6 117 -4 2 -10 28 -13 58 -9 69 -13 95 -15 95 -2 0 -11
90 -13 125 0 17 -14 82 -33 160 -2 8 -4 15 -5 15 0 0 -3 23 -5 50 -4 59 -8 78
-17 85 -8 7 -26 96 -30 158 -1 6 -6 12 -11 12 -6 0 -8 3 -4 6 3 4 0 22 -8 41
-8 19 -13 39 -10 43 3 4 -6 38 -20 74 -14 37 -25 77 -25 89 0 13 -4 27 -8 33
-8 8 -30 71 -36 104 -7 31 -28 80 -36 80 -4 0 -6 9 -3 19 3 10 -1 30 -8 42 -7
13 -14 29 -15 34 -2 6 -5 20 -8 32 -2 11 -12 36 -22 55 -10 18 -17 37 -16 42
2 4 -2 14 -8 20 -5 7 -7 16 -3 19 3 4 1 7 -5 7 -11 0 -24 31 -27 63 -1 11 -8
23 -16 28 -8 5 -10 9 -6 9 5 0 1 7 -8 16 -9 10 -15 24 -12 33 2 9 -1 22 -7 28
-27 30 -36 43 -36 58 0 19 -21 57 -37 68 -7 4 -10 14 -7 22 4 8 1 15 -7 15 -7
0 -10 3 -6 6 3 4 0 13 -8 21 -8 8 -15 23 -15 34 0 10 -4 19 -10 19 -5 0 -10 9
-10 21 0 11 -4 17 -10 14 -5 -3 -7 0 -4 8 3 8 -2 20 -11 27 -8 7 -15 19 -15
26 0 8 -4 14 -10 14 -5 0 -10 7 -10 16 0 9 -8 24 -18 33 -11 9 -22 28 -26 44
-3 15 -13 27 -22 27 -8 0 -14 6 -12 13 2 6 -7 26 -20 44 -12 17 -22 36 -22 42
0 5 -6 14 -13 18 -7 4 -30 35 -51 68 -20 33 -43 68 -49 79 -7 10 -21 29 -32
41 -36 39 -55 65 -55 75 0 5 -9 14 -20 20 -11 6 -20 20 -20 30 0 11 -5 19 -11
18 -6 -2 -16 5 -22 16 -7 10 -21 29 -32 41 -11 12 -51 57 -90 100 -71 80 -185
193 -225 223 -12 9 -44 38 -71 65 -27 26 -53 47 -57 47 -4 0 -14 9 -22 20 -8
11 -20 20 -27 20 -7 0 -13 4 -13 9 0 5 -16 16 -35 25 -19 9 -35 22 -35 28 0 6
-3 8 -7 5 -3 -4 -16 5 -29 18 -13 14 -28 25 -34 25 -6 0 -22 12 -37 26 -14 14
-28 23 -31 20 -3 -4 -15 3 -26 13 -12 11 -28 21 -36 23 -8 2 -23 12 -32 22
-10 10 -18 15 -18 10 0 -5 -4 -4 -8 1 -4 6 -18 16 -32 23 -14 6 -32 16 -40 21
-8 5 -32 17 -52 26 -21 9 -38 20 -38 25 0 5 -6 7 -14 4 -8 -3 -17 0 -21 5 -3
6 -11 9 -16 6 -5 -4 -9 -2 -9 3 0 9 -55 26 -72 23 -5 0 -8 3 -8 8 0 10 -35 25
-61 26 -9 0 -22 5 -30 11 -18 14 -47 25 -84 31 -16 3 -36 10 -42 15 -7 6 -13
8 -13 4 0 -4 -12 0 -27 7 -16 8 -43 15 -61 15 -18 0 -40 6 -48 13 -8 6 -14 8
-14 3 0 -5 -5 -2 -10 6 -8 12 -10 12 -10 1 0 -10 -3 -11 -13 -2 -8 6 -17 8
-20 4 -4 -3 -7 -2 -7 4 0 8 -36 13 -132 17 -16 0 -28 3 -28 6 0 4 -10 7 -22 7
-13 1 -48 5 -78 8 -53 6 -269 13 -273 9z m-149 -968 c6 -3 13 -2 17 4 4 7 12
7 24 0 11 -5 33 -11 50 -12 17 -1 31 -6 31 -11 0 -4 4 -6 8 -3 4 2 48 -2 97
-10 50 -8 96 -15 103 -16 6 -1 12 -6 12 -11 0 -6 3 -8 6 -4 4 3 21 0 38 -7 17
-7 36 -11 43 -9 6 2 27 -4 45 -13 18 -10 38 -19 43 -20 6 -2 19 -5 30 -7 19
-5 179 -76 219 -98 10 -6 34 -19 52 -30 19 -10 34 -15 34 -11 0 4 4 3 8 -3 4
-5 17 -16 30 -22 12 -7 32 -19 44 -25 13 -7 30 -21 39 -30 9 -10 21 -18 27
-18 6 0 17 -6 24 -12 39 -37 99 -78 112 -78 9 0 16 -7 16 -15 0 -9 11 -20 24
-24 13 -5 26 -17 29 -25 4 -9 13 -16 22 -16 8 0 15 -7 15 -15 0 -8 4 -15 9
-15 14 0 231 -215 231 -228 0 -6 9 -14 20 -17 11 -3 20 -12 20 -19 0 -7 11
-22 25 -32 14 -10 23 -25 20 -31 -2 -7 1 -13 8 -13 7 0 23 -16 36 -35 13 -19
34 -47 47 -62 13 -16 24 -33 24 -38 0 -6 9 -16 21 -23 12 -7 19 -16 16 -19 -3
-3 3 -15 15 -27 11 -11 25 -33 30 -48 6 -16 14 -28 19 -28 4 0 16 -16 25 -35
9 -19 20 -35 25 -35 5 0 9 -9 9 -20 0 -11 4 -20 8 -20 5 0 14 -16 22 -35 8
-19 17 -35 21 -35 8 0 24 -40 21 -52 -1 -5 2 -8 6 -8 9 0 33 -44 38 -69 1 -8
6 -17 11 -20 4 -3 23 -37 41 -76 18 -38 42 -88 53 -110 10 -22 19 -46 19 -53
0 -7 10 -29 23 -50 13 -20 21 -45 19 -54 -2 -10 2 -18 8 -18 6 0 8 -4 5 -10
-3 -5 -1 -10 4 -10 6 0 10 -3 10 -7 -1 -5 0 -10 1 -13 1 -3 4 -18 6 -35 3 -16
11 -33 17 -37 7 -4 8 -8 4 -8 -4 0 -2 -10 5 -22 6 -13 13 -32 14 -43 1 -11 10
-38 20 -60 9 -22 18 -49 19 -60 2 -26 25 -97 36 -111 5 -6 8 -22 6 -35 -2 -13
1 -37 8 -54 22 -54 35 -101 35 -130 0 -36 21 -108 35 -117 6 -5 5 -8 -3 -8 -9
0 -10 -5 -3 -18 6 -11 12 -45 15 -78 5 -57 10 -90 21 -144 13 -61 16 -91 19
-176 2 -50 6 -96 10 -103 4 -6 1 -11 -6 -11 -8 0 -9 -3 -2 -8 6 -4 11 -27 13
-52 1 -24 4 -46 6 -48 2 -2 0 -15 -6 -29 -6 -15 -5 -22 1 -18 6 4 8 -10 6 -35
-2 -22 1 -43 6 -46 5 -3 4 -11 -2 -19 -8 -9 -8 -15 0 -20 6 -4 7 -12 1 -24 -5
-9 -6 -23 -1 -31 4 -7 4 -24 0 -36 -6 -14 -5 -26 0 -29 5 -3 5 -19 -1 -38 -6
-20 -5 -33 0 -35 6 -2 7 -13 2 -25 -4 -12 -7 -38 -6 -57 1 -19 -2 -47 -6 -62
-5 -17 -4 -28 2 -28 6 0 5 -8 -1 -20 -6 -11 -8 -20 -5 -20 3 0 1 -9 -5 -19 -7
-14 -7 -22 0 -26 6 -4 7 -11 4 -17 -4 -6 -8 -50 -10 -97 -3 -83 -7 -117 -19
-171 -13 -60 -16 -78 -20 -134 -3 -33 -10 -65 -15 -71 -5 -7 -7 -14 -4 -17 3
-4 0 -23 -6 -45 -6 -21 -13 -51 -16 -68 -2 -16 -7 -43 -9 -60 -3 -16 -4 -33
-2 -36 1 -3 -3 -12 -10 -20 -9 -12 -24 -64 -28 -104 -2 -22 -18 -71 -26 -81
-5 -6 -11 -26 -13 -45 -3 -19 -12 -52 -22 -74 -9 -22 -18 -49 -19 -60 -1 -11
-10 -38 -20 -60 -10 -22 -20 -51 -22 -64 -2 -13 -11 -37 -19 -53 -8 -16 -12
-33 -9 -38 3 -6 2 -10 -3 -10 -5 0 -17 -21 -26 -47 -10 -27 -23 -59 -30 -73
-8 -14 -19 -42 -25 -63 -7 -20 -16 -37 -21 -37 -7 0 -16 -22 -25 -58 -2 -8
-11 -22 -20 -32 -9 -10 -17 -25 -19 -33 -1 -8 -10 -27 -21 -43 -11 -16 -20
-35 -21 -41 -1 -7 -12 -24 -23 -39 -12 -15 -21 -35 -21 -44 0 -10 -7 -21 -16
-24 -9 -4 -14 -9 -11 -12 3 -4 -5 -21 -18 -39 -14 -17 -25 -37 -25 -43 0 -6
-6 -15 -13 -19 -7 -4 -21 -25 -32 -45 -10 -20 -23 -36 -29 -35 -6 1 -10 -6
-11 -15 0 -9 -10 -26 -23 -38 -12 -11 -22 -24 -22 -29 0 -4 -9 -19 -21 -32
-11 -13 -24 -29 -27 -36 -4 -6 -14 -13 -22 -15 -14 -3 -15 1 -18 52 -2 28 -35
71 -69 88 -45 24 -104 10 -153 -37 -24 -23 -20 -120 8 -155 12 -16 22 -26 22
-22 0 4 12 0 28 -7 31 -16 72 -13 114 9 15 8 28 13 28 11 0 -5 -72 -87 -127
-145 -24 -25 -43 -49 -43 -55 0 -6 -2 -8 -5 -5 -3 2 -32 -22 -65 -54 -33 -33
-60 -57 -60 -54 0 3 -17 -11 -37 -32 -21 -20 -40 -37 -43 -37 -3 0 -15 -10
-28 -23 -12 -12 -27 -20 -32 -17 -6 4 -10 2 -10 -4 0 -5 -7 -17 -16 -25 -16
-17 -35 -22 -32 -8 12 47 -67 140 -104 121 -10 -5 -18 -6 -18 -1 0 4 -12 8
-27 7 -32 0 -87 -50 -79 -71 3 -8 1 -14 -4 -14 -13 0 -13 -45 0 -90 7 -26 18
-39 40 -47 16 -6 30 -18 30 -27 0 -9 -3 -15 -7 -14 -5 2 -25 -8 -45 -20 -21
-13 -42 -21 -47 -18 -5 3 -11 -1 -15 -9 -3 -8 -12 -15 -21 -15 -8 0 -15 -5
-15 -12 0 -6 -3 -9 -6 -5 -4 3 -24 -3 -45 -13 -21 -11 -44 -20 -50 -20 -7 0
-20 -7 -29 -15 -10 -9 -30 -18 -45 -21 -15 -2 -45 -13 -68 -24 -23 -10 -60
-21 -82 -25 -21 -3 -42 -10 -46 -16 -3 -6 -10 -10 -15 -10 -5 1 -22 -2 -39 -5
-16 -3 -46 -7 -65 -9 -19 -2 -36 -4 -37 -5 -2 -2 -7 -4 -13 -5 -5 -1 -11 -4
-12 -5 -2 -1 -14 -3 -28 -5 -14 -2 -38 -7 -55 -10 -43 -10 -455 -12 -455 -2 0
5 -4 5 -10 2 -5 -3 -10 -3 -10 2 0 4 -12 9 -27 10 -49 4 -78 8 -88 14 -5 3
-27 7 -48 8 -21 1 -54 9 -73 17 -19 8 -34 11 -34 7 0 -5 -4 -3 -8 4 -4 6 -23
13 -42 16 -40 5 -100 28 -100 38 0 4 -9 5 -20 2 -11 -3 -20 0 -20 6 0 6 -6 11
-14 11 -7 0 -26 7 -42 14 -15 8 -31 13 -36 10 -4 -3 -8 -1 -8 4 0 9 -37 25
-52 23 -5 -1 -8 4 -8 10 0 5 -4 7 -10 4 -5 -3 -17 3 -27 14 -9 11 -21 17 -26
14 -6 -3 -16 2 -23 11 -7 10 -14 17 -16 16 -7 -4 -58 24 -58 31 0 4 -17 14
-39 22 -21 9 -41 23 -44 31 -4 9 -11 16 -17 16 -13 0 -69 38 -91 63 -9 9 -21
17 -27 17 -6 0 -17 8 -24 18 -7 9 -33 33 -58 52 -25 19 -46 38 -48 42 -2 4
-10 8 -18 8 -9 0 -12 5 -9 10 3 6 2 10 -3 10 -12 0 -125 112 -193 192 -30 34
-60 69 -67 76 -6 7 -12 18 -12 23 0 5 -7 9 -15 9 -8 0 -15 9 -15 20 0 11 -7
20 -15 20 -8 0 -15 4 -15 9 0 5 -6 16 -13 23 -8 7 -26 32 -41 56 -14 23 -31
42 -37 42 -6 0 -9 6 -6 13 3 7 -2 18 -11 24 -10 6 -28 32 -42 59 -14 27 -35
60 -48 74 -12 14 -20 30 -18 36 2 6 -5 16 -15 22 -10 7 -19 19 -19 26 0 8 -7
22 -16 30 -8 9 -12 16 -8 16 4 0 -1 9 -11 20 -10 11 -16 23 -12 26 3 3 -3 16
-14 27 -11 12 -23 32 -26 46 -3 13 -14 32 -23 41 -10 10 -21 31 -24 48 -4 16
-15 38 -25 48 -10 11 -16 25 -13 32 2 7 -3 21 -11 30 -8 9 -17 32 -20 50 -4
18 -14 40 -22 48 -8 9 -15 26 -15 40 0 13 -5 24 -12 24 -6 0 -8 3 -5 7 4 3 0
17 -8 29 -8 13 -17 34 -19 46 -3 13 -5 24 -5 26 -1 1 -1 5 -1 10 -1 4 -8 17
-16 30 -8 13 -17 35 -19 50 -1 16 -11 46 -20 67 -9 22 -19 53 -22 69 -2 16 -8
39 -13 50 -4 12 -7 23 -7 26 0 3 -5 15 -11 27 -7 12 -14 40 -16 61 -2 22 -9
49 -15 60 -6 11 -11 32 -11 46 0 14 -4 26 -9 26 -4 0 -7 18 -5 40 2 22 -1 40
-5 40 -4 0 -8 6 -9 13 -3 33 -15 83 -21 87 -4 3 -7 31 -7 63 1 31 -2 57 -7 57
-5 0 -7 7 -3 15 3 8 1 28 -5 43 -6 15 -12 65 -14 112 -2 47 -4 85 -5 85 -3 0
-8 45 -11 90 -1 22 -6 48 -11 57 -6 12 -5 18 2 18 6 0 8 5 3 12 -10 18 -13 63
-16 301 -1 115 0 210 4 213 3 2 5 17 3 33 -2 17 1 33 6 36 5 3 5 18 0 34 -4
16 -6 32 -3 34 2 3 6 27 9 54 2 26 6 64 10 83 3 19 8 67 10 105 2 39 6 84 9
100 3 17 7 41 9 55 2 14 5 25 6 25 1 0 3 20 4 45 2 25 7 61 11 80 5 19 10 38
11 43 1 4 2 8 4 10 4 5 11 45 14 83 2 23 9 51 15 63 7 12 9 26 6 31 -3 6 -2
10 3 10 5 0 9 6 10 13 0 6 3 24 6 40 3 15 8 39 10 53 3 14 10 32 17 40 6 8 8
14 4 14 -4 0 -3 6 2 13 5 6 10 26 12 42 2 17 7 35 12 41 5 7 9 16 8 20 -2 16
13 54 22 54 5 0 7 11 3 25 -4 17 -2 25 7 25 7 0 10 3 7 6 -4 3 3 25 13 50 11
24 18 48 15 53 -3 5 1 14 9 21 8 7 22 37 31 66 8 30 20 56 25 59 5 4 14 26 20
51 6 24 15 44 20 44 5 0 9 11 9 24 0 13 7 29 15 36 8 7 12 16 9 21 -3 5 0 9 5
9 6 0 11 9 11 20 0 11 4 20 8 20 8 0 36 60 33 73 0 4 3 7 9 7 5 0 10 6 10 14
0 7 7 19 15 26 9 7 13 15 11 18 -3 3 5 19 17 36 12 17 22 33 22 36 3 21 18 49
25 45 4 -3 12 8 18 23 5 16 16 35 23 43 8 8 21 28 29 44 8 17 27 46 42 66 15
20 25 39 21 43 -3 3 -1 6 4 6 6 0 29 27 52 59 22 33 53 73 68 89 15 17 42 48
60 69 17 21 45 54 62 73 17 19 31 39 31 43 0 5 5 5 10 2 6 -3 10 -2 10 4 0 15
45 61 60 61 7 0 10 3 7 6 -7 8 72 80 84 77 4 -2 11 5 14 15 3 9 25 31 48 49
23 18 77 60 120 93 43 33 82 58 88 55 5 -4 9 1 9 9 0 8 18 22 40 32 22 10 40
21 40 25 0 8 81 49 98 49 6 0 16 8 21 18 6 9 11 14 11 9 0 -4 11 0 24 9 14 8
26 14 28 13 2 -2 14 5 28 14 14 9 35 18 45 20 11 2 38 12 60 24 22 11 55 24
73 28 17 3 32 11 32 16 0 6 4 8 9 4 5 -3 12 -1 16 5 4 6 10 8 15 5 4 -2 30 2
56 11 27 8 60 17 73 20 14 3 29 8 35 12 6 3 21 5 34 3 13 -1 30 3 39 11 12 9
15 10 9 1 -4 -7 -2 -13 3 -13 6 0 11 4 11 9 0 5 10 9 23 9 12 0 38 3 57 6 19
4 52 7 72 9 21 1 38 4 38 7 0 7 216 4 228 -4z m1595 -6113 c8 -7 -11 -33 -23
-33 -5 0 -6 9 -3 20 5 20 15 25 26 13z"/>
<path d="M2065 4910 c-55 -6 -78 -16 -70 -31 4 -5 0 -9 -7 -9 -16 0 -38 -55
-34 -85 4 -35 26 -70 59 -92 35 -24 87 -37 87 -22 0 5 3 8 8 8 17 -3 29 2 55
25 21 18 28 34 29 63 2 69 -2 104 -10 99 -5 -3 -15 6 -22 20 -8 13 -19 23 -26
20 -7 -3 -14 -2 -16 2 -2 4 -25 5 -53 2z"/>
<path d="M423 4892 c-52 -28 -77 -69 -76 -121 1 -28 8 -50 17 -57 9 -6 16 -16
16 -22 0 -16 71 -40 108 -36 18 2 48 16 66 31 31 26 33 33 34 91 1 34 -3 62
-8 62 -6 0 -9 4 -8 9 2 5 -1 9 -6 9 -5 0 -13 7 -18 16 -5 9 -16 16 -23 16 -8
0 -15 4 -15 8 0 15 -56 12 -87 -6z"/>
<path d="M750 4903 c-23 -9 -81 -74 -75 -84 4 -5 1 -9 -4 -9 -30 0 9 -99 51
-130 41 -30 96 -31 140 0 19 13 35 28 36 34 0 6 4 28 8 48 3 20 3 45 -1 55 -5
10 -8 23 -7 28 1 6 -15 22 -35 38 -35 26 -77 33 -113 20z"/>
<path d="M1052 4890 c-12 -12 -22 -17 -22 -13 -1 4 -11 -10 -22 -32 -24 -44
-29 -83 -13 -103 72 -95 133 -110 198 -49 80 74 28 216 -79 217 -27 0 -47 -7
-62 -20z"/>
<path d="M1368 4892 c-16 -9 -28 -22 -28 -29 0 -7 -4 -13 -9 -13 -20 0 -33
-97 -14 -104 7 -3 13 -10 13 -16 0 -6 9 -20 20 -32 11 -12 20 -18 20 -14 0 4
7 0 16 -8 21 -22 74 -24 98 -5 56 44 62 55 65 106 3 60 -5 93 -22 93 -7 0 -18
9 -25 20 -16 26 -95 27 -134 2z"/>
<path d="M1672 4880 c-18 -17 -29 -30 -26 -30 4 0 2 -6 -3 -12 -6 -7 -10 -31
-10 -53 0 -33 7 -46 39 -77 22 -21 48 -38 59 -38 10 0 19 -6 19 -12 0 -9 4 -8
10 2 5 8 10 11 10 6 0 -6 5 -5 12 2 7 7 18 12 26 12 22 0 62 48 63 76 4 72 0
116 -11 109 -5 -3 -17 6 -26 20 -14 22 -23 25 -73 25 -48 -1 -61 -5 -89 -30z"/>
<path d="M2425 4620 c-83 -18 -130 -101 -100 -174 5 -11 22 -32 39 -47 26 -23
37 -26 82 -24 41 3 58 10 80 32 25 25 28 35 28 90 0 56 -2 64 -29 85 -46 36
-68 44 -100 38z"/>
<path d="M2720 4618 c0 -4 -4 -8 -10 -8 -13 0 -50 -32 -50 -43 0 -5 -7 -15
-15 -23 -11 -11 -12 -20 -5 -34 6 -12 6 -21 1 -25 -19 -11 34 -89 69 -101 56
-18 130 -6 130 23 0 7 7 13 15 13 21 0 33 57 23 105 -9 40 -36 74 -73 90 -27
11 -85 13 -85 3z"/>
<path d="M1150 4613 c0 -7 -3 -12 -7 -11 -57 12 -140 -92 -113 -142 5 -10 7
-20 4 -23 -3 -3 3 -12 15 -19 12 -7 21 -18 21 -25 0 -7 5 -14 10 -14 15 -2 23
-4 47 -13 51 -17 130 30 140 82 16 83 -32 159 -93 151 -4 0 -11 5 -15 13 -7
10 -9 10 -9 1z"/>
<path d="M1465 4612 c-11 -2 -24 -8 -29 -13 -6 -5 -17 -9 -25 -9 -25 0 -61
-65 -61 -107 0 -47 54 -112 94 -114 15 -1 32 -2 39 -3 6 -1 17 2 23 6 7 5 16
7 22 6 18 -5 62 56 63 87 1 17 0 35 -1 40 -1 6 -3 15 -4 20 -8 37 -21 54 -59
71 -23 10 -51 18 -62 16z"/>
<path d="M1760 4609 c0 -5 -11 -11 -25 -15 -13 -3 -27 -15 -30 -25 -4 -11 -10
-17 -15 -14 -16 10 -23 -82 -9 -114 7 -16 17 -27 21 -25 4 3 8 -1 8 -8 0 -18
30 -35 58 -33 12 1 22 -2 22 -7 0 -5 5 -6 11 -3 5 4 21 8 34 9 12 2 35 15 50
30 23 23 28 36 28 80 0 65 -14 91 -58 112 -40 18 -95 26 -95 13z"/>
<path d="M2080 4608 c0 -4 -6 -8 -14 -8 -8 0 -28 -16 -44 -35 -21 -26 -28 -45
-26 -68 4 -53 8 -62 41 -94 28 -27 37 -30 85 -29 44 2 58 7 83 33 26 26 30 36
29 79 -3 81 -4 85 -14 79 -5 -3 -10 0 -10 7 0 7 -15 20 -32 28 -36 16 -98 22
-98 8z"/>
<path d="M472 4595 c-77 -26 -113 -132 -64 -186 12 -12 22 -27 22 -33 0 -5 3
-6 7 -3 3 4 11 3 17 -2 21 -16 64 -21 69 -8 4 9 6 8 6 -2 1 -11 6 -10 26 3 14
9 25 14 25 11 0 -3 8 3 18 13 10 9 17 22 15 28 -3 7 0 15 6 18 17 11 3 104
-19 128 -30 32 -87 46 -128 33z"/>
<path d="M782 4591 c-23 -8 -42 -19 -42 -25 0 -5 -7 -17 -16 -27 -40 -44 -6
-145 55 -167 51 -19 61 -21 61 -12 0 5 7 7 15 3 9 -3 24 2 34 11 10 9 21 13
24 9 4 -3 7 1 7 10 0 8 4 17 9 19 6 2 11 14 13 28 2 14 7 31 11 38 5 6 4 12
-1 12 -5 0 -9 11 -9 25 0 30 -17 51 -57 72 -41 22 -54 22 -104 4z"/>
<path d="M3100 4317 c-44 -8 -77 -33 -97 -73 -15 -26 -9 -81 11 -103 9 -10 16
-23 16 -29 0 -10 10 -15 23 -11 1 0 15 -7 32 -15 20 -11 31 -12 36 -5 4 7 8 8
10 1 5 -14 89 27 89 43 0 7 5 15 11 17 6 2 12 27 14 56 2 43 -1 54 -21 69 -12
9 -21 20 -19 23 2 4 -11 13 -28 21 -24 11 -44 12 -77 6z"/>
<path d="M3398 4317 c-21 -6 -38 -16 -38 -24 0 -7 -5 -13 -11 -13 -5 0 -7 -4
-4 -10 3 -5 -1 -10 -9 -10 -9 0 -17 -9 -17 -20 -1 -11 -2 -26 -3 -32 -1 -7 3
-19 8 -27 9 -11 8 -13 -2 -7 -8 5 -2 -10 13 -33 15 -22 30 -41 34 -42 3 0 15
-3 26 -5 51 -13 79 -13 93 -1 8 6 17 11 19 10 14 -11 50 37 45 59 -1 4 3 19 8
33 5 14 6 25 2 25 -4 0 -8 9 -9 21 -3 35 -31 69 -58 69 -14 0 -25 4 -25 8 0
11 -28 10 -72 -1z"/>
<path d="M2437 4309 c-28 -8 -70 -46 -75 -68 -2 -11 -2 -24 -1 -78 0 -12 7
-27 15 -34 8 -6 14 -18 14 -26 0 -8 4 -12 9 -8 5 3 16 -2 24 -10 32 -31 118
-10 159 39 27 33 22 146 -7 146 -8 0 -16 8 -19 18 -3 10 -14 18 -23 19 -10 1
-29 3 -43 6 -14 2 -38 1 -53 -4z"/>
<path d="M2754 4308 c-3 -4 -9 -6 -14 -3 -13 8 -70 -76 -70 -103 0 -38 40 -99
74 -114 61 -25 108 -14 156 37 18 19 23 35 23 74 -1 42 -6 54 -32 80 -18 17
-41 32 -51 33 -59 5 -81 4 -86 -4z"/>
<path d="M491 4284 c-38 -26 -60 -54 -64 -83 -2 -11 -6 -23 -9 -27 -8 -7 31
-76 49 -87 6 -4 18 -14 26 -21 12 -12 86 -16 107 -6 3 1 8 2 13 1 4 0 7 4 7
10 0 6 10 19 23 29 19 15 22 27 21 78 -1 48 -6 63 -27 84 -48 48 -97 56 -146
22z"/>
<path d="M817 4293 c-39 -20 -76 -81 -73 -119 6 -58 60 -114 119 -120 30 -4
87 20 87 36 0 6 7 10 15 10 16 0 18 9 15 48 -1 12 3 22 7 22 5 0 5 20 -1 45
-6 25 -14 45 -19 45 -5 0 -16 9 -25 20 -22 25 -88 32 -125 13z"/>
<path d="M1108 4268 c-36 -36 -44 -59 -38 -113 1 -11 6 -21 11 -23 5 -2 9 -8
9 -14 0 -12 23 -32 63 -54 31 -17 85 -8 112 19 8 8 20 17 27 19 17 6 21 137 5
152 -50 45 -62 51 -105 52 -40 1 -50 -4 -84 -38z"/>
<path d="M1433 4275 c-65 -62 -54 -151 26 -198 33 -19 81 -29 81 -16 0 5 7 9
15 9 8 0 28 13 45 30 27 26 30 36 30 87 0 52 -3 61 -31 87 -24 23 -41 30 -81
32 -44 2 -54 -1 -85 -31z"/>
<path d="M1753 4275 c-31 -29 -36 -41 -38 -84 -1 -28 1 -51 5 -51 4 0 13 -11
20 -25 7 -14 19 -25 27 -25 7 0 13 -4 13 -9 0 -16 50 -22 91 -10 56 17 84 59
82 124 -1 73 -35 106 -110 110 -50 3 -58 1 -90 -30z"/>
<path d="M2070 4273 c-17 -18 -30 -37 -31 -41 -10 -64 -4 -85 33 -123 21 -21
47 -40 58 -40 11 -1 26 -2 33 -3 24 -4 87 35 101 62 20 40 13 122 -13 143 -12
10 -21 21 -21 26 0 5 -29 10 -65 10 -62 1 -67 -1 -95 -34z"/>
<path d="M1230 4013 c0 -7 -3 -12 -7 -12 -27 4 -46 -5 -78 -38 -30 -31 -35
-43 -35 -82 0 -38 6 -53 29 -79 25 -26 51 -39 64 -30 1 1 12 -4 24 -10 14 -8
24 -9 28 -2 3 5 15 10 25 10 35 0 67 52 69 114 1 33 -3 56 -9 56 -5 0 -10 6
-10 14 0 13 -53 45 -74 44 -5 0 -13 6 -17 14 -7 10 -9 10 -9 1z"/>
<path d="M1840 4009 c0 -5 -10 -11 -22 -14 -32 -8 -65 -63 -63 -105 2 -44 13
-80 26 -80 6 0 7 -4 4 -10 -3 -5 1 -10 9 -10 9 0 16 -4 16 -8 0 -5 26 -10 59
-11 53 -2 62 1 91 28 29 26 33 36 34 85 1 31 -2 56 -6 56 -4 0 -8 6 -8 13 -1
20 -51 50 -97 57 -24 4 -43 3 -43 -1z"/>
<path d="M2511 4012 c-29 -2 -55 -12 -74 -28 -16 -13 -25 -24 -20 -24 4 0 2
-4 -6 -9 -17 -11 -25 -54 -17 -86 3 -12 19 -37 35 -56 27 -30 36 -34 85 -35
50 -2 58 1 90 32 38 37 39 40 36 94 -2 38 -29 92 -42 84 -4 -3 -8 -1 -8 3 0
17 -36 28 -79 25z"/>
<path d="M2797 4009 c-15 -4 -32 -13 -39 -21 -22 -22 -49 -68 -41 -68 5 0 1
-5 -7 -10 -9 -6 -11 -10 -3 -10 7 0 10 -7 7 -15 -6 -15 28 -69 61 -97 21 -17
82 -19 120 -3 25 11 65 55 66 75 6 77 4 82 -28 113 -34 34 -89 49 -136 36z"/>
<path d="M3113 4008 c-36 -9 -74 -57 -79 -97 -3 -27 16 -81 28 -81 5 0 8 -7 8
-15 0 -8 11 -17 25 -21 14 -3 25 -10 25 -14 0 -9 70 -6 95 5 23 10 55 43 56
59 9 93 -1 138 -34 154 -31 16 -87 20 -124 10z"/>
<path d="M3422 4009 c-27 -10 -66 -73 -68 -108 -1 -30 28 -78 63 -105 39 -29
98 -29 128 2 14 13 25 21 25 16 0 -4 6 0 13 11 9 11 13 41 12 81 -1 53 -5 66
-26 83 -13 11 -34 21 -46 22 -60 6 -80 5 -101 -2z"/>
<path d="M868 3993 c-6 -7 -15 -13 -21 -13 -12 0 -50 -42 -56 -61 -10 -32 -1
-78 21 -112 13 -20 28 -35 33 -33 6 2 21 -2 35 -9 14 -6 30 -11 35 -10 37 6
67 21 88 45 21 23 25 37 24 82 -2 38 -8 60 -22 75 -19 20 -62 39 -77 35 -5 -1
-8 2 -8 6 0 13 -40 9 -52 -5z"/>
<path d="M1510 4000 c0 -5 -6 -10 -14 -10 -25 0 -61 -62 -63 -106 -1 -33 5
-48 31 -78 29 -34 36 -37 81 -37 70 1 85 3 85 12 0 5 9 17 21 28 17 15 21 31
20 76 0 58 -9 73 -60 107 -28 19 -101 25 -101 8z"/>
<path d="M2128 3992 c-15 -9 -33 -29 -39 -44 -14 -34 -18 -88 -7 -94 5 -3 6
-10 3 -15 -4 -5 -1 -9 5 -9 6 0 9 -4 6 -8 -9 -16 47 -47 88 -49 47 -2 100 6
92 14 -3 4 4 15 17 27 15 14 22 32 22 56 0 19 3 37 7 40 11 9 -40 80 -57 80
-8 0 -15 5 -15 10 0 16 -92 10 -122 -8z"/>
<path d="M536 3986 c-42 -18 -75 -71 -71 -116 4 -44 40 -99 67 -99 9 -1 19 -5
22 -10 7 -11 65 -7 91 6 44 24 59 52 60 111 0 51 -3 60 -29 82 -17 14 -33 26
-38 26 -4 1 -9 3 -10 4 -9 8 -70 5 -92 -4z"/>
<path d="M3539 3726 c-49 -21 -92 -65 -93 -97 -1 -16 -4 -29 -8 -29 -10 0 23
-62 48 -89 18 -20 31 -24 79 -23 50 0 61 4 87 31 30 30 32 41 29 119 -1 12 -9
30 -19 40 -31 29 -62 52 -62 47 0 -3 -8 -2 -17 3 -11 6 -28 5 -44 -2z"/>
<path d="M2880 3712 c-18 -9 -46 -34 -62 -56 -33 -46 -33 -84 2 -121 11 -12
17 -24 14 -28 -4 -3 7 -9 22 -13 16 -4 34 -10 39 -13 38 -26 130 26 138 77 2
12 6 24 9 27 13 14 -20 88 -50 111 -17 14 -34 25 -37 24 -3 0 -6 0 -7 1 -22 6
-41 4 -68 -9z"/>
<path d="M3193 3711 c-15 -9 -32 -22 -36 -29 -5 -7 -18 -21 -29 -32 -12 -11
-16 -20 -10 -20 9 0 10 -5 4 -17 -11 -21 2 -55 35 -97 16 -19 32 -28 57 -29
20 -1 36 -6 36 -12 0 -5 5 -4 12 3 7 7 19 12 28 12 23 0 69 51 68 75 0 11 3
28 7 38 4 10 3 17 -5 17 -6 0 -9 4 -6 9 10 15 -12 61 -29 61 -8 0 -15 4 -15 9
0 10 -48 30 -72 29 -9 -1 -29 -8 -45 -17z"/>
<path d="M1950 3710 c0 -5 -6 -7 -14 -4 -8 3 -17 1 -21 -5 -3 -6 -14 -11 -25
-11 -16 0 -26 -11 -28 -33 -1 -4 -9 -15 -18 -24 -11 -11 -14 -26 -10 -47 4
-17 7 -37 8 -43 1 -7 5 -13 9 -13 4 0 11 -9 14 -20 3 -11 15 -20 25 -20 10 0
20 -5 22 -10 3 -10 31 -14 74 -11 11 0 37 17 56 37 32 31 36 41 35 86 0 37 -6
56 -21 72 -24 25 -106 61 -106 46z"/>
<path d="M2228 3701 c-21 -9 -38 -21 -38 -27 0 -6 -8 -18 -18 -27 -46 -42 -5
-143 69 -167 33 -11 47 -11 77 -1 49 18 68 40 76 88 11 61 -16 119 -62 134
-51 17 -62 17 -104 0z"/>
<path d="M2546 3701 c-41 -27 -65 -57 -71 -88 -5 -28 11 -83 25 -83 4 0 10 -9
13 -20 3 -11 14 -20 24 -20 11 0 23 -3 27 -7 25 -25 129 11 141 48 17 53 7
149 -15 149 -5 0 -16 7 -25 16 -23 24 -86 26 -119 5z"/>
<path d="M1252 3690 c-19 -9 -33 -18 -31 -21 2 -2 -5 -16 -15 -31 -24 -37 -23
-64 4 -120 7 -14 23 -29 36 -32 13 -4 24 -11 24 -17 0 -6 19 -9 45 -8 25 2 45
6 45 10 0 4 10 9 23 13 32 8 49 43 50 102 0 59 -28 97 -83 109 -53 13 -62 12
-98 -5z"/>
<path d="M1587 3695 c-7 -6 -17 -10 -22 -8 -11 3 -52 -65 -47 -79 1 -4 -3 -8
-9 -8 -8 0 -9 -4 0 -13 6 -8 8 -16 5 -19 -11 -11 34 -70 67 -87 53 -28 115
-16 154 31 16 18 21 37 20 77 -1 33 -6 56 -13 59 -7 2 -12 9 -12 17 0 29 -119
54 -143 30z"/>
<path d="M623 3688 c-18 -5 -33 -12 -33 -17 0 -4 -9 -18 -20 -31 -19 -22 -21
-28 -23 -67 -1 -29 32 -83 58 -95 14 -6 25 -15 25 -19 0 -13 86 -3 104 12 49
41 54 50 54 107 0 48 -5 60 -28 83 -30 31 -85 42 -137 27z"/>
<path d="M931 3688 c-18 -5 -31 -12 -27 -15 3 -3 -4 -17 -14 -31 -21 -26 -29
-112 -11 -112 5 0 12 -9 16 -19 7 -22 81 -62 105 -57 35 7 67 26 90 52 20 23
25 39 23 77 -2 50 -37 110 -60 102 -7 -2 -15 0 -18 5 -7 11 -57 10 -104 -2z"/>
<path d="M3650 3431 c0 -6 -3 -10 -7 -9 -19 6 -73 -23 -84 -44 -22 -39 -28
-96 -12 -120 4 -7 8 -17 8 -22 0 -16 69 -49 108 -51 21 -1 42 4 48 12 6 7 16
13 21 13 41 0 60 104 30 160 -11 20 -28 36 -41 38 -11 2 -21 8 -21 13 0 6 -5
7 -10 4 -6 -4 -17 -1 -25 5 -11 9 -15 9 -15 1z"/>
<path d="M2990 3417 c-53 -20 -70 -31 -70 -44 0 -7 -4 -13 -8 -13 -17 0 -19
-99 -2 -110 6 -4 11 -10 11 -14 -3 -19 0 -26 10 -26 6 0 22 -8 35 -19 27 -21
94 -19 107 4 4 8 17 15 29 15 15 0 19 5 15 20 -3 10 1 24 8 30 23 19 6 101
-29 135 -21 20 -80 32 -106 22z"/>
<path d="M3288 3413 c-23 -9 -42 -26 -50 -44 -7 -16 -15 -29 -18 -29 -11 0 -5
-69 8 -82 6 -6 12 -17 12 -24 0 -20 62 -51 103 -52 20 -1 37 3 37 9 0 6 4 8 9
5 5 -3 12 1 15 10 3 8 10 12 16 9 10 -6 28 30 36 74 10 51 -28 116 -75 126
-11 3 -29 7 -38 9 -10 2 -35 -3 -55 -11z"/>
<path d="M2350 3412 c-8 -2 -22 -6 -30 -9 -8 -4 -19 -5 -23 -4 -5 1 -6 -3 -2
-9 3 -5 2 -10 -4 -10 -16 0 -42 -64 -39 -98 1 -18 6 -32 10 -32 4 0 8 -5 8
-11 0 -7 11 -22 25 -35 14 -13 25 -20 25 -17 0 3 6 1 13 -4 24 -19 45 -21 71
-8 14 8 26 12 26 9 0 -8 38 34 49 54 20 37 20 73 0 111 -25 48 -83 76 -129 63z"/>
<path d="M2654 3413 c-41 -8 -76 -57 -79 -112 -2 -28 0 -49 4 -46 5 3 12 -6
15 -20 4 -14 11 -25 17 -25 6 0 17 -6 24 -12 34 -31 43 -36 49 -31 3 4 18 8
33 9 14 2 29 7 32 12 3 5 17 15 29 21 13 7 22 15 19 18 -3 2 1 15 7 29 7 13
12 34 11 46 -4 39 -26 88 -40 88 -7 0 -15 4 -17 9 -4 11 -75 20 -104 14z"/>
<path d="M704 3385 c-16 -13 -32 -21 -35 -19 -6 3 -11 -12 -25 -74 -4 -22 24
-94 44 -108 9 -7 26 -14 38 -14 11 0 25 -5 32 -12 7 -7 12 -8 12 -2 0 5 10 11
22 11 35 3 65 23 78 52 16 31 21 101 8 101 -5 0 -8 7 -6 16 2 9 -6 21 -17 28
-11 6 -27 18 -35 27 -23 23 -83 20 -116 -6z"/>
<path d="M1030 3390 c-10 -10 -21 -16 -23 -13 -10 9 -44 -72 -41 -99 3 -33 20
-67 46 -91 27 -26 120 -27 148 -2 27 24 50 72 50 102 0 27 -31 78 -63 104 -28
23 -94 22 -117 -1z"/>
<path d="M1338 3386 c-46 -43 -65 -113 -39 -139 5 -5 8 -15 6 -21 -8 -23 53
-57 105 -59 42 -1 53 4 74 26 57 62 61 106 13 169 -31 40 -36 43 -85 44 -40 1
-57 -3 -74 -20z"/>
<path d="M1650 3380 c-17 -15 -31 -31 -31 -34 1 -3 -1 -17 -5 -31 -8 -31 16
-115 33 -115 6 0 16 -6 20 -14 5 -8 27 -15 54 -17 38 -2 52 2 76 22 72 60 73
136 5 196 -39 33 -110 30 -152 -7z"/>
<path d="M1976 3386 c-13 -11 -26 -31 -30 -43 -4 -13 -11 -23 -16 -23 -17 0
14 -87 43 -117 26 -28 38 -33 75 -33 51 0 85 23 111 73 25 49 7 131 -31 143
-10 3 -18 9 -18 13 0 5 -25 9 -56 9 -43 0 -61 -5 -78 -22z"/>
<path d="M2466 3121 c-4 -6 -12 -9 -17 -6 -5 3 -19 -3 -31 -14 -12 -12 -26
-21 -30 -21 -29 0 -39 -122 -12 -151 7 -8 14 -20 14 -26 0 -12 52 -26 90 -25
47 1 62 8 91 41 37 43 38 106 1 150 -13 17 -28 28 -32 26 -4 -3 -10 1 -13 9
-3 8 -14 13 -24 12 -10 -2 -21 1 -24 6 -4 6 -9 6 -13 -1z"/>
<path d="M2752 3116 c-64 -53 -82 -79 -82 -116 0 -47 59 -128 83 -113 4 2 15
-1 24 -9 19 -16 17 -16 34 -2 8 6 24 10 37 9 12 -1 22 2 22 6 0 4 11 20 25 35
14 15 26 33 26 40 3 41 2 52 -11 80 -25 58 -122 100 -158 70z"/>
<path d="M3080 3116 c-5 -5 -10 -7 -10 -3 0 15 -59 -47 -70 -74 -17 -39 -5
-100 21 -106 10 -3 17 -8 15 -12 -13 -21 16 -34 78 -34 62 -1 67 1 96 33 16
18 31 40 31 47 5 49 4 60 -4 78 -9 17 -36 46 -72 73 -15 12 -73 10 -85 -2z"/>
<path d="M3383 3110 c-60 -38 -86 -106 -59 -154 17 -30 57 -66 75 -67 113 -8
151 19 156 110 3 53 1 58 -34 91 -43 41 -92 48 -138 20z"/>
<path d="M3710 3117 c-14 -6 -28 -17 -33 -24 -4 -6 -14 -19 -23 -27 -8 -8 -15
-18 -14 -21 0 -3 0 -7 -1 -10 -9 -52 19 -112 64 -137 12 -6 43 -11 69 -10 40
1 52 6 77 34 26 29 29 39 27 89 -2 47 -7 61 -32 85 -33 32 -89 40 -134 21z"/>
<path d="M1812 3112 c-12 -2 -40 -20 -62 -41 -35 -33 -39 -42 -38 -82 0 -44
32 -99 58 -99 5 0 10 -4 10 -8 0 -5 6 -9 13 -10 6 0 21 -3 31 -5 11 -2 31 2
45 10 15 7 31 13 36 13 21 1 46 52 48 96 2 36 -3 52 -23 75 -28 33 -84 57
-118 51z"/>
<path d="M2120 3112 c-8 -3 -23 -13 -34 -24 -11 -10 -23 -18 -28 -18 -4 0 -8
-7 -8 -15 0 -8 -4 -15 -8 -15 -5 0 -8 -22 -7 -49 1 -39 7 -54 30 -77 16 -16
32 -29 36 -29 4 0 11 -3 15 -7 11 -12 72 -10 79 2 3 6 15 10 26 10 10 0 19 4
19 8 0 5 8 17 19 28 16 18 21 65 12 114 -2 10 -51 63 -51 55 0 -4 -7 -2 -15 5
-16 14 -61 20 -85 12z"/>
<path d="M860 3099 c0 -6 -5 -7 -10 -4 -6 4 -18 1 -27 -7 -9 -7 -18 -12 -20
-10 -10 7 -23 0 -23 -13 0 -7 -7 -18 -16 -23 -19 -11 -26 -77 -11 -106 23 -45
97 -94 120 -79 7 4 17 8 22 9 6 0 15 2 22 2 13 2 62 48 64 60 11 70 -2 124
-34 145 -34 22 -87 38 -87 26z"/>
<path d="M1145 3093 c-57 -30 -76 -57 -77 -109 -1 -45 2 -51 42 -85 37 -32 49
-37 87 -35 33 2 51 10 77 35 29 28 33 37 32 85 -1 47 -5 58 -32 83 -17 15 -37
30 -45 31 -41 11 -57 10 -84 -5z"/>
<path d="M1480 3100 c0 -6 -4 -8 -10 -5 -5 3 -26 -9 -45 -28 -31 -30 -35 -40
-35 -83 0 -43 4 -52 35 -79 20 -16 40 -31 45 -31 6 -1 11 -2 13 -4 10 -8 57
-9 57 0 0 5 3 9 8 8 14 -3 47 16 64 37 20 24 24 112 5 135 -34 43 -137 81
-137 50z"/>
<path d="M3267 2824 c-3 -3 -11 -7 -19 -8 -71 -16 -75 -19 -87 -52 -20 -57
-22 -80 -6 -117 9 -22 26 -40 45 -48 16 -8 30 -17 30 -20 0 -13 66 -3 84 14
11 9 25 17 30 17 6 0 18 15 25 32 17 37 22 98 10 98 -5 0 -9 7 -9 15 0 18 -40
56 -52 49 -4 -3 -8 0 -8 7 0 7 -3 9 -7 6 -3 -4 -11 -2 -18 3 -7 5 -14 7 -18 4z"/>
<path d="M3554 2819 c-3 -5 -10 -7 -15 -4 -5 4 -9 1 -9 -4 0 -6 -6 -11 -14
-11 -7 0 -21 -11 -30 -25 -9 -14 -14 -25 -10 -25 4 0 2 -6 -4 -12 -27 -35 5
-117 56 -141 42 -20 99 -20 107 1 3 7 8 11 13 8 4 -2 12 -2 18 2 14 10 44 77
44 99 0 22 -43 100 -51 93 -3 -3 -13 1 -21 8 -20 16 -76 24 -84 11z"/>
<path d="M3846 2810 c-31 -20 -49 -47 -59 -90 -7 -27 31 -115 47 -111 5 2 12
-1 15 -6 9 -12 71 -33 71 -24 0 4 18 14 40 21 22 7 40 20 40 27 0 8 7 21 15
29 19 20 19 78 0 98 -9 8 -16 18 -15 21 1 20 -3 25 -25 31 -14 3 -25 9 -25 13
0 16 -76 9 -104 -9z"/>
<path d="M2594 2811 c-6 -6 -12 -7 -40 -10 -8 0 -12 -5 -9 -11 3 -5 2 -10 -4
-10 -6 0 -19 -17 -28 -37 -15 -32 -16 -45 -7 -82 6 -25 17 -47 25 -50 8 -2 19
-10 24 -16 15 -18 70 -34 86 -25 7 5 17 6 21 4 4 -3 8 0 8 6 0 6 10 15 23 21
22 10 51 60 53 89 0 24 -17 70 -27 70 -5 0 -9 6 -9 14 0 22 -99 54 -116 37z"/>
<path d="M2900 2808 c0 -5 -4 -7 -9 -4 -5 3 -20 -6 -35 -20 -14 -15 -23 -30
-20 -35 3 -5 1 -9 -3 -9 -12 0 -16 -70 -4 -84 5 -6 10 -15 11 -21 5 -23 13
-35 20 -30 4 3 13 -2 20 -10 19 -23 76 -30 103 -13 12 9 26 15 31 16 16 1 55
82 50 105 -3 12 -6 29 -8 36 -1 8 -8 17 -14 19 -7 2 -10 8 -7 12 10 16 -44 42
-90 45 -25 1 -45 -2 -45 -7z"/>
<path d="M962 2796 c-9 -5 -21 -15 -25 -23 -4 -7 -15 -13 -22 -13 -8 0 -16 -9
-16 -20 -1 -11 -2 -28 -2 -37 -1 -10 -6 -21 -12 -25 -7 -5 -7 -8 0 -8 6 0 12
-12 13 -26 1 -15 14 -38 29 -52 22 -20 39 -26 85 -27 32 -1 58 2 58 7 0 4 6 8
13 8 12 0 42 48 37 59 -1 2 4 7 10 11 23 14 2 78 -38 118 -30 30 -44 37 -75
37 -21 0 -46 -4 -55 -9z"/>
<path d="M1253 2774 c-35 -32 -41 -57 -32 -144 3 -31 59 -64 113 -65 51 -1 68
8 105 57 52 70 -12 181 -106 183 -37 1 -51 -5 -80 -31z"/>
<path d="M1577 2777 c-36 -32 -48 -78 -34 -132 3 -11 6 -26 6 -33 1 -7 5 -11
10 -7 5 3 17 -5 25 -17 13 -18 26 -22 70 -22 46 -1 59 3 78 24 45 48 57 86 39
132 -5 13 -9 27 -9 32 -1 19 -66 50 -109 51 -35 1 -50 -5 -76 -28z"/>
<path d="M1896 2780 c-29 -31 -50 -100 -36 -114 6 -6 10 -20 10 -32 0 -14 8
-25 20 -29 11 -3 20 -13 20 -21 0 -8 3 -13 8 -13 4 1 9 0 12 -1 15 -6 90 -7
90 0 0 4 11 12 25 18 21 10 40 38 50 75 2 4 3 8 5 10 7 9 6 37 -1 37 -6 0 -8
4 -5 9 6 10 -30 61 -54 76 -8 5 -38 10 -67 10 -44 1 -56 -4 -77 -25z"/>
<path d="M2230 2790 c-10 -10 -21 -16 -24 -13 -3 3 -8 -8 -12 -23 -4 -16 -10
-31 -13 -34 -13 -10 10 -110 25 -110 8 0 14 -4 14 -9 0 -14 76 -41 101 -36 32
6 113 96 97 107 -10 6 -10 8 -1 8 18 0 7 40 -25 85 -27 38 -30 40 -86 42 -44
1 -62 -3 -76 -17z"/>
<path d="M2505 2520 c-4 -6 -10 -8 -15 -5 -10 6 -60 -15 -60 -25 0 -4 -8 -10
-18 -13 -19 -4 -37 -60 -26 -78 3 -5 0 -9 -6 -9 -8 0 -8 -6 0 -21 7 -11 9 -23
6 -26 -6 -7 41 -54 57 -57 7 -1 17 -5 24 -9 15 -10 73 -5 73 6 0 4 5 5 10 2
13 -8 72 53 64 66 -3 5 -1 9 5 9 10 0 9 25 -1 36 -4 3 -4 12 -2 19 3 7 -2 25
-11 38 -21 33 -92 80 -100 67z"/>
<path d="M2803 2519 c-13 -5 -23 -6 -23 -4 0 3 -8 -3 -19 -14 -10 -10 -27 -23
-36 -29 -14 -7 -18 -23 -19 -70 -1 -53 2 -64 27 -90 15 -16 34 -29 42 -30 34
-5 61 -5 85 -1 27 4 83 57 74 70 -3 5 -1 9 4 9 5 0 9 16 9 35 -1 19 -4 35 -8
35 -4 0 -10 11 -13 24 -9 38 -86 79 -123 65z"/>
<path d="M3126 2523 c-2 -3 -10 -5 -18 -7 -24 -3 -79 -50 -74 -63 3 -7 1 -13
-4 -13 -5 0 -7 -23 -5 -52 3 -43 8 -56 35 -79 18 -16 40 -26 51 -24 10 2 19 0
19 -5 0 -6 9 -6 23 -1 12 5 27 9 32 10 28 4 42 14 59 43 22 36 32 98 16 98 -5
0 -10 8 -10 19 0 32 -104 94 -124 74z"/>
<path d="M3427 2519 c-30 -8 -79 -57 -71 -70 3 -5 1 -9 -4 -9 -8 0 -9 -59 -1
-90 4 -13 46 -58 59 -61 24 -6 110 -4 110 2 0 5 6 9 13 9 19 0 51 62 52 103 1
31 -6 45 -39 80 -42 44 -65 50 -119 36z"/>
<path d="M3747 2522 c-45 -9 -90 -85 -80 -137 2 -11 4 -28 5 -37 1 -10 7 -18
13 -18 6 0 18 -10 28 -23 14 -20 26 -23 73 -22 41 0 60 5 69 18 6 9 14 14 17
12 7 -8 36 66 36 94 1 23 -18 60 -49 94 -16 18 -73 27 -112 19z"/>
<path d="M4059 2522 c-21 -7 -48 -38 -63 -73 -18 -42 -4 -99 32 -136 24 -23
37 -28 78 -28 51 0 69 11 107 65 19 27 23 85 7 95 -6 4 -8 10 -5 15 3 5 -4 15
-15 23 -11 7 -17 16 -14 19 13 14 -94 30 -127 20z"/>
<path d="M4346 2495 c-27 -26 -33 -39 -35 -81 -2 -45 2 -54 32 -86 44 -47 105
-60 136 -29 11 11 21 17 24 15 8 -9 50 67 50 90 0 34 -33 95 -57 108 -11 6
-43 12 -69 13 -42 1 -53 -3 -81 -30z"/>
<path d="M1815 2500 c-37 -16 -78 -50 -60 -50 4 0 2 -6 -4 -14 -34 -41 6 -154
56 -157 5 0 13 -5 19 -10 6 -5 20 -6 32 -4 12 3 31 7 42 9 22 5 56 27 59 38 1
4 8 22 15 40 14 32 8 66 -16 95 -6 7 -7 13 -2 13 4 0 -1 6 -11 14 -11 8 -23
12 -26 10 -4 -2 -10 3 -13 12 -4 10 -14 14 -26 11 -10 -3 -20 -1 -22 3 -2 4
-21 0 -43 -10z"/>
<path d="M2135 2503 c-8 -8 -15 -11 -15 -7 0 11 -50 -46 -52 -59 0 -7 -2 -16
-2 -22 -1 -5 -4 -15 -8 -20 -11 -17 27 -89 57 -109 25 -17 72 -18 125 -5 40
10 80 130 50 149 -6 4 -12 17 -13 28 -1 12 -7 22 -13 22 -7 0 -19 6 -27 14
-21 21 -85 27 -102 9z"/>
<path d="M1180 2499 c0 -4 -14 -12 -30 -18 -32 -11 -50 -42 -55 -98 -2 -18 1
-35 6 -38 5 -4 9 -14 9 -24 0 -20 40 -51 65 -51 8 0 15 -4 15 -8 0 -7 34 -8
50 -2 3 1 8 2 13 1 4 0 7 3 7 8 0 5 11 12 25 15 14 4 23 11 20 16 -3 6 -2 10
3 10 5 0 14 11 20 26 13 27 6 104 -9 104 -5 0 -9 6 -9 13 0 8 -18 22 -41 32
-41 19 -89 26 -89 14z"/>
<path d="M1476 2488 c-21 -13 -38 -27 -37 -32 2 -5 -2 -12 -8 -16 -18 -11 -16
-82 3 -123 10 -21 21 -35 24 -33 2 3 14 -1 24 -9 11 -7 27 -11 36 -8 10 4 13
2 8 -5 -5 -9 -1 -10 16 -3 46 19 63 24 70 23 4 -1 10 8 14 21 3 12 13 30 21
39 8 9 12 22 8 27 -3 6 -2 11 4 11 5 0 5 12 -2 30 -6 17 -15 30 -19 30 -4 0
-8 7 -8 15 0 9 -8 19 -17 22 -10 4 -20 10 -23 14 -3 4 -21 10 -40 13 -26 5
-45 1 -74 -16z"/>
<path d="M3371 2217 c-6 -6 -11 -8 -11 -3 0 4 -18 -3 -40 -15 -21 -12 -37 -26
-34 -31 3 -4 1 -8 -4 -8 -5 0 -9 -6 -9 -12 -1 -7 -3 -28 -6 -46 -2 -18 0 -35
4 -38 5 -3 7 -10 3 -15 -5 -9 11 -27 51 -56 30 -22 98 -20 127 5 8 6 18 9 21
5 4 -3 7 1 7 9 0 9 7 21 15 28 8 7 13 15 11 19 -2 3 0 15 4 26 8 23 -23 94
-49 110 -37 23 -79 33 -90 22z"/>
<path d="M3653 2207 c-40 -19 -69 -59 -58 -78 4 -5 2 -9 -4 -9 -6 0 -6 -11 -1
-29 4 -16 6 -32 3 -35 -3 -2 1 -14 9 -25 8 -12 18 -18 21 -14 4 3 7 2 7 -4 0
-12 47 -34 76 -35 10 0 33 5 49 12 17 7 33 13 38 12 4 -1 7 5 7 13 0 8 4 15 9
15 8 0 23 39 25 65 1 6 -5 29 -13 51 -12 37 -36 60 -73 70 -5 1 -9 2 -10 4
-12 9 -52 3 -85 -13z"/>
<path d="M3988 2223 c-10 -3 -18 -9 -18 -14 0 -5 -7 -9 -15 -9 -33 0 -56 -99
-35 -150 13 -33 46 -57 84 -64 14 -3 30 -7 35 -10 5 -4 12 -2 16 4 3 6 22 17
41 25 51 21 73 89 46 146 -17 36 -42 66 -42 52 0 -4 -4 -2 -8 5 -9 13 -73 22
-104 15z"/>
<path d="M2720 2211 c0 -4 -10 -7 -21 -8 -24 -2 -49 -26 -65 -63 -10 -24 -10
-53 0 -95 2 -11 5 -23 5 -26 1 -3 22 -17 49 -31 43 -24 50 -25 82 -12 19 7 43
16 53 20 9 3 17 12 17 19 0 7 6 18 14 24 20 17 14 80 -11 124 -12 20 -26 36
-30 36 -4 -1 -15 0 -23 4 -25 9 -70 15 -70 8z"/>
<path d="M3030 2208 c0 -4 -9 -8 -20 -8 -11 0 -20 -5 -20 -11 0 -5 -4 -8 -8
-5 -11 7 -35 -61 -34 -95 1 -45 30 -88 69 -104 39 -17 91 -14 103 5 4 6 16 10
26 8 12 -2 18 2 16 10 -1 7 4 23 13 35 8 12 15 34 15 50 0 37 -40 107 -62 107
-10 0 -18 3 -18 8 0 4 -18 8 -40 8 -22 1 -40 -3 -40 -8z"/>
<path d="M1440 2202 c0 -5 -11 -7 -24 -5 -18 4 -26 0 -31 -16 -3 -12 -13 -21
-21 -21 -8 0 -14 -10 -14 -24 0 -14 -4 -27 -9 -30 -4 -3 -6 -18 -4 -33 2 -16
5 -34 5 -42 2 -17 90 -81 102 -74 5 3 22 6 37 5 16 0 29 4 29 9 0 5 6 9 13 9
13 0 50 49 47 64 -1 5 4 12 10 16 25 16 -36 130 -70 130 -5 0 -10 5 -10 12 0
9 -3 9 -12 0 -7 -7 -17 -8 -30 -1 -10 5 -18 6 -18 1z"/>
<path d="M1745 2202 c-11 -2 -26 -11 -32 -20 -7 -9 -13 -12 -13 -8 0 4 -7 1
-15 -8 -17 -17 -27 -84 -18 -127 8 -39 66 -77 120 -77 29 -1 43 4 47 15 4 9 9
13 13 9 3 -3 18 11 31 31 27 39 39 93 21 93 -5 0 -8 4 -5 8 3 5 -7 23 -22 41
-27 33 -82 52 -127 43z"/>
<path d="M2068 2203 c-32 -5 -81 -51 -74 -70 3 -7 0 -13 -6 -13 -7 0 -8 -14
-4 -42 4 -24 8 -49 8 -55 1 -7 4 -13 8 -13 4 0 19 -11 34 -23 43 -38 96 -33
146 13 50 46 58 86 26 144 -27 49 -73 68 -138 59z"/>
<path d="M2382 2203 c-59 -12 -93 -94 -69 -168 8 -23 64 -64 96 -70 12 -2 33
0 46 5 35 13 86 65 88 89 1 12 5 21 9 21 10 0 -22 73 -36 82 -6 4 -7 8 -1 8 5
0 0 7 -12 15 -24 17 -84 26 -121 18z"/>
<path d="M3607 1964 c-2 -3 -13 -6 -25 -9 -24 -4 -70 -42 -85 -70 -14 -26 -18
-95 -6 -95 6 0 8 -4 5 -8 -3 -5 10 -24 29 -42 29 -28 41 -33 84 -33 43 0 54 5
82 32 27 28 32 39 33 89 2 45 -2 61 -19 79 -23 24 -91 64 -98 57z"/>
<path d="M3906 1963 c-4 -5 -12 -8 -16 -8 -5 0 -27 -19 -48 -41 -37 -40 -44
-68 -33 -125 3 -13 69 -78 75 -72 3 3 6 2 6 -3 0 -11 45 -10 80 1 13 4 36 21
50 37 20 23 25 39 25 86 0 49 -4 60 -27 80 -14 12 -42 29 -62 37 -41 17 -40
17 -50 8z"/>
<path d="M3231 1934 c-38 -26 -54 -46 -69 -91 -9 -26 -8 -36 4 -47 8 -8 14
-19 14 -25 0 -18 50 -61 73 -62 93 -6 144 26 150 96 6 62 -8 97 -50 124 -49
32 -82 33 -122 5z"/>
<path d="M2325 1944 c-6 -1 -22 -5 -36 -8 -53 -11 -114 -104 -92 -138 4 -7 8
-20 10 -28 1 -8 7 -16 12 -18 6 -2 11 -10 11 -17 0 -12 20 -23 53 -31 4 -1 9
-3 12 -4 23 -11 81 4 109 29 27 23 55 101 37 101 -4 0 -8 12 -9 27 -1 15 -11
36 -22 48 -20 21 -68 43 -85 39z"/>
<path d="M2583 1928 c-18 -11 -33 -26 -33 -33 0 -7 -7 -16 -16 -19 -8 -3 -12
-10 -9 -16 3 -5 2 -10 -4 -10 -10 0 -9 -46 2 -57 4 -3 7 -15 7 -25 0 -10 7
-18 15 -18 8 0 15 -6 15 -14 0 -16 27 -30 53 -27 9 1 17 -2 17 -7 0 -16 78 12
102 36 12 11 23 29 24 39 2 10 5 30 7 46 2 15 0 27 -5 27 -6 0 -8 6 -5 14 6
15 -40 69 -63 75 -43 10 -78 6 -107 -11z"/>
<path d="M2903 1929 c-18 -12 -33 -27 -33 -34 0 -7 -7 -16 -16 -19 -8 -3 -13
-9 -11 -13 3 -5 1 -17 -3 -28 -8 -23 9 -63 46 -104 21 -24 30 -27 81 -25 44 2
61 7 74 23 9 11 19 17 23 14 3 -4 7 -2 7 3 1 5 3 18 5 29 10 62 10 76 2 81 -4
3 -6 9 -3 14 7 11 -34 60 -51 60 -8 0 -14 5 -14 10 0 18 -74 10 -107 -11z"/>
<path d="M1642 1928 c-32 -7 -45 -16 -52 -34 -6 -14 -14 -22 -20 -19 -5 3 -11
-4 -11 -17 -1 -13 -3 -34 -4 -48 -5 -44 33 -95 82 -109 23 -7 54 -10 68 -7 14
4 26 5 28 4 6 -5 33 26 47 51 15 30 21 101 8 101 -6 0 -8 7 -4 15 3 8 1 15 -4
15 -6 0 -10 6 -10 14 0 7 -15 20 -32 27 -42 17 -44 17 -96 7z"/>
<path d="M1938 1921 c-34 -20 -70 -83 -64 -113 6 -34 17 -58 26 -58 4 0 10 -8
12 -18 8 -28 80 -46 126 -31 46 15 56 26 69 69 13 45 14 78 2 85 -5 4 -7 11
-4 16 6 9 -3 20 -39 49 -25 19 -95 20 -128 1z"/>
<path d="M2525 1676 c-61 -23 -95 -50 -96 -76 -5 -98 -1 -120 24 -130 12 -5
18 -9 12 -9 -5 -1 1 -8 14 -17 14 -10 42 -16 69 -16 42 1 51 5 84 44 29 33 38
52 38 81 0 20 -4 37 -10 37 -5 0 -9 4 -7 8 3 11 -50 72 -57 65 -3 -4 -6 0 -6
7 0 7 -3 10 -7 7 -3 -4 -11 -3 -17 2 -6 5 -24 3 -41 -3z"/>
<path d="M2868 1685 c-2 -2 -16 -6 -31 -9 -16 -3 -42 -18 -59 -35 -28 -27 -31
-36 -30 -93 0 -34 5 -64 10 -66 6 -2 22 -14 37 -28 26 -24 39 -28 85 -24 29 2
93 47 85 60 -3 4 1 10 9 13 14 6 28 77 14 77 -4 0 -8 7 -8 15 0 30 -95 107
-112 90z"/>
<path d="M3154 1676 c-17 -6 -39 -19 -48 -28 -10 -10 -21 -18 -26 -18 -4 0 -7
-11 -5 -25 1 -14 -1 -27 -5 -30 -4 -2 -4 -19 -1 -37 19 -104 132 -142 201 -69
24 25 49 83 43 100 -29 92 -89 132 -159 107z"/>
<path d="M3442 1668 c-2 -10 -11 -18 -18 -18 -13 0 -30 -48 -24 -66 1 -4 -4
-10 -10 -14 -9 -6 -9 -13 0 -29 6 -12 10 -27 7 -34 -4 -13 16 -37 32 -37 6 0
11 -4 11 -9 0 -10 34 -23 70 -25 53 -4 129 76 125 131 -5 51 -76 126 -104 109
-6 -4 -11 -4 -11 1 0 4 -16 8 -37 8 -26 0 -37 -5 -41 -17z"/>
<path d="M2196 1672 c-10 -2 -35 -16 -55 -31 -35 -25 -36 -28 -36 -93 -1 -38
3 -68 6 -68 4 0 20 -12 36 -28 24 -23 35 -27 76 -24 27 1 59 10 72 20 35 26
72 142 44 142 -5 0 -9 6 -9 13 0 14 -56 67 -74 68 -6 0 -18 2 -26 3 -8 1 -24
0 -34 -2z"/>
<path d="M5721 8459 c-30 -12 -75 -51 -80 -70 -9 -39 -10 -89 0 -89 6 0 8 -4
5 -9 -8 -12 39 -60 61 -64 10 -1 23 -6 29 -10 6 -3 14 -4 17 0 4 3 21 7 38 8
38 3 75 41 77 79 0 5 6 13 14 17 7 5 8 9 3 9 -6 0 -11 10 -12 22 -3 34 -24 78
-38 78 -8 0 -15 5 -17 12 -2 6 -11 13 -19 14 -7 2 -23 5 -34 7 -11 3 -31 1
-44 -4z"/>
<path d="M6039 8461 c-68 -27 -103 -110 -72 -171 23 -47 50 -63 107 -65 41 -2
58 3 77 19 33 29 69 106 49 106 -6 0 -9 3 -8 8 1 4 -2 19 -6 33 -14 50 -97 90
-147 70z"/>
<path d="M5390 8453 c-20 -8 -45 -34 -61 -63 -15 -28 -21 -100 -8 -100 5 0 9
-6 9 -13 0 -19 36 -50 63 -55 68 -13 120 6 144 52 18 35 26 96 11 96 -5 0 -6
5 -3 10 3 6 1 10 -5 10 -7 0 -10 7 -6 15 3 9 0 15 -8 15 -7 0 -20 8 -30 18
-16 19 -75 26 -106 15z"/>
<path d="M6905 8199 c-3 -4 -12 -6 -20 -2 -8 3 -15 0 -15 -7 0 -6 -4 -9 -9 -6
-11 7 -53 -35 -58 -58 -22 -97 11 -154 100 -170 49 -9 115 30 125 73 18 84 -4
136 -71 161 -26 10 -49 14 -52 9z"/>
<path d="M6257 8194 c-2 -3 -15 -7 -28 -9 -41 -8 -76 -62 -76 -116 0 -31 4
-50 13 -53 8 -3 14 -12 14 -20 0 -17 60 -49 93 -48 38 0 95 31 103 54 21 61
20 100 -3 139 -15 24 -42 43 -63 42 -3 0 -15 3 -26 8 -12 4 -24 6 -27 3z"/>
<path d="M6544 8184 c-38 -16 -74 -70 -74 -110 0 -16 9 -40 19 -53 10 -14 16
-32 13 -40 -3 -9 -2 -13 3 -9 4 4 20 1 36 -8 32 -16 79 -14 121 6 40 19 60 80
47 145 -5 26 -54 75 -76 76 -10 0 -27 2 -38 4 -11 1 -34 -3 -51 -11z"/>
<path d="M5562 8170 c-17 -10 -29 -20 -25 -24 3 -3 0 -6 -7 -6 -7 0 -10 -3 -7
-7 4 -3 3 -11 -2 -17 -19 -23 -19 -73 -1 -102 11 -15 17 -31 14 -36 -3 -4 4
-8 14 -8 11 0 25 -7 32 -15 30 -36 133 0 157 56 24 56 9 120 -34 153 -33 24
-101 27 -141 6z"/>
<path d="M5877 8170 c-7 -8 -13 -19 -14 -23 -1 -4 -9 -15 -18 -23 -16 -17 -22
-104 -6 -104 5 0 12 -11 15 -24 3 -14 16 -26 31 -30 14 -4 25 -10 25 -14 0
-14 62 -6 103 12 20 9 37 21 37 26 0 17 1 19 15 46 19 37 -1 100 -42 135 -25
20 -128 20 -146 -1z"/>
<path d="M7021 7923 c-7 -7 -17 -10 -23 -7 -7 4 -8 2 -4 -4 4 -7 1 -12 -8 -12
-9 0 -16 -4 -16 -9 0 -5 -6 -16 -14 -24 -16 -16 -28 -87 -15 -87 5 0 9 -6 9
-13 0 -7 14 -28 31 -45 27 -28 38 -32 83 -32 41 1 57 6 85 30 26 22 33 34 29
54 -3 14 -1 26 4 26 5 0 7 9 3 19 -3 11 -8 29 -10 40 -4 21 -35 60 -35 44 0
-4 -4 -2 -9 6 -13 20 -94 31 -110 14z"/>
<path d="M5748 7922 c-10 -2 -18 -8 -18 -13 0 -5 -9 -9 -20 -9 -11 0 -20 -7
-20 -15 0 -9 -7 -18 -15 -21 -31 -12 -26 -134 6 -134 5 0 8 -6 7 -12 -2 -7 19
-20 46 -29 92 -31 166 19 166 110 0 65 -38 108 -97 113 -7 1 -13 4 -13 8 0 7
-15 8 -42 2z"/>
<path d="M6068 7923 c-10 -3 -18 -9 -18 -15 0 -5 -6 -8 -13 -5 -13 5 -27 -11
-54 -61 -29 -53 19 -146 79 -154 15 -2 30 -6 33 -10 11 -10 73 18 101 45 37
37 38 115 3 154 -36 38 -88 56 -131 46z"/>
<path d="M6337 7887 c-21 -21 -35 -42 -32 -47 4 -6 1 -10 -6 -10 -15 0 -4 -56
18 -89 10 -15 17 -29 15 -33 -2 -8 84 -27 106 -23 10 2 27 4 40 4 12 1 22 7
22 16 0 7 6 18 14 22 8 4 16 19 18 33 2 14 7 31 11 38 5 6 4 12 0 12 -5 0 -10
14 -11 31 -3 33 -11 44 -55 72 -44 29 -95 19 -140 -26z"/>
<path d="M6678 7911 c-16 -10 -25 -21 -21 -24 3 -4 1 -7 -5 -7 -13 0 -31 -31
-37 -61 -5 -25 13 -66 44 -101 21 -25 32 -28 82 -28 50 0 61 4 86 29 25 24 29
36 29 87 1 55 -1 61 -34 92 -28 26 -42 32 -76 31 -22 0 -53 -8 -68 -18z"/>
<path d="M7315 7912 c-56 -47 -70 -105 -37 -155 36 -53 58 -67 109 -67 39 1
54 6 81 31 30 27 34 36 34 83 1 62 -9 96 -26 96 -8 0 -19 7 -26 15 -18 21
-109 20 -135 -3z"/>
<path d="M7634 7912 c-33 -27 -52 -64 -49 -97 2 -16 3 -34 4 -40 2 -15 43 -60
69 -74 25 -13 102 -12 102 2 0 4 5 5 10 2 6 -3 10 -1 10 5 0 7 10 20 22 30 17
14 22 29 23 74 1 31 -2 56 -7 56 -4 0 -8 6 -8 14 0 8 -9 18 -20 21 -11 3 -20
11 -20 16 0 17 -113 10 -136 -9z"/>
<path d="M8160 7638 c0 -5 -4 -7 -8 -4 -15 9 -82 -43 -86 -67 -11 -61 -4 -108
19 -131 23 -23 69 -40 110 -39 27 0 75 24 75 36 0 6 7 19 16 28 23 25 22 85
-1 119 -20 30 -61 55 -82 51 -7 -1 -13 2 -13 7 0 5 -7 9 -15 9 -8 0 -15 -4
-15 -9z"/>
<path d="M8473 7640 c-13 -5 -23 -7 -23 -4 0 2 -15 -10 -34 -29 -30 -30 -33
-38 -31 -88 1 -42 7 -60 26 -80 24 -26 109 -55 109 -37 0 5 6 8 13 6 27 -5 56
15 73 50 24 49 22 89 -4 132 -12 19 -22 31 -22 26 0 -5 -8 -2 -17 6 -30 25
-47 33 -38 17 6 -11 5 -12 -6 -1 -15 14 -16 14 -46 2z"/>
<path d="M7175 7621 c-46 -21 -69 -44 -71 -75 -1 -11 -5 -29 -9 -38 -5 -12 -3
-18 6 -18 7 0 10 -3 6 -6 -14 -15 17 -65 51 -81 46 -22 71 -23 100 -6 12 7 22
11 22 7 0 -6 47 48 48 56 0 3 5 18 11 33 8 20 8 33 -2 50 -20 36 -50 67 -64
67 -7 0 -13 5 -13 11 0 6 -6 9 -14 6 -7 -3 -17 -2 -22 3 -5 5 -26 1 -49 -9z"/>
<path d="M7499 7626 c-74 -38 -83 -52 -84 -121 0 -26 7 -48 20 -63 27 -32 95
-63 115 -52 8 4 17 9 20 9 3 1 15 4 27 7 37 10 83 100 65 128 -3 6 -7 17 -8
23 -4 27 -63 69 -109 77 -13 2 -33 -1 -46 -8z"/>
<path d="M7805 7623 c-46 -25 -70 -58 -68 -95 1 -18 2 -35 3 -38 1 -3 2 -13 1
-22 -1 -9 7 -22 18 -28 12 -6 21 -17 21 -25 0 -9 6 -12 15 -9 8 4 21 1 29 -5
23 -19 126 7 126 32 0 5 9 20 20 34 19 25 20 45 5 93 -4 11 -11 20 -16 20 -5
0 -9 7 -9 16 0 8 -4 12 -10 9 -5 -3 -10 -1 -10 5 0 6 -4 9 -9 6 -5 -4 -11 -1
-13 6 -6 18 -69 18 -103 1z"/>
<path d="M6535 7614 c-22 -7 -45 -20 -51 -28 -6 -9 -14 -13 -17 -9 -11 11 -13
-91 -3 -132 5 -20 60 -63 72 -57 4 2 10 -1 13 -7 20 -31 142 49 146 96 1 10 4
23 5 28 5 17 -21 73 -36 79 -9 3 -12 11 -8 18 4 7 4 10 0 6 -4 -3 -25 -1 -45
7 -31 11 -44 10 -76 -1z"/>
<path d="M6860 7619 c0 -6 -4 -8 -9 -5 -10 7 -65 -35 -69 -53 -16 -76 6 -140
57 -163 40 -19 91 -24 91 -9 0 5 11 12 24 15 15 4 35 23 49 47 21 35 23 46 15
77 -5 19 -16 42 -24 49 -8 8 -14 19 -14 25 0 6 -3 8 -6 5 -4 -3 -16 -1 -27 4
-27 15 -87 20 -87 8z"/>
<path d="M5900 7609 c0 -5 -7 -6 -14 -3 -8 3 -27 -6 -42 -19 -21 -20 -28 -37
-31 -74 -4 -64 11 -96 56 -121 43 -24 81 -28 99 -10 7 7 12 8 12 3 0 -17 70
68 71 86 1 11 2 29 3 42 1 12 -5 29 -13 38 -9 9 -22 26 -30 37 -8 11 -21 21
-30 21 -9 0 -31 2 -48 4 -18 3 -33 1 -33 -4z"/>
<path d="M6213 7612 c-13 -4 -31 -15 -42 -24 -11 -9 -22 -14 -25 -11 -6 7 -7
-1 -10 -82 -1 -41 3 -55 25 -77 14 -16 34 -28 43 -28 9 0 16 -4 16 -10 0 -13
49 -7 79 10 23 12 70 57 72 69 12 57 -6 111 -46 137 -28 18 -80 26 -112 16z"/>
<path d="M8309 7335 c-3 -2 -14 -6 -26 -8 -35 -5 -73 -59 -73 -104 0 -38 22
-93 37 -93 6 0 16 -7 21 -16 11 -20 102 -33 102 -15 0 7 4 10 9 7 5 -3 11 1
15 9 3 8 12 15 20 15 7 0 17 10 21 23 4 12 9 27 10 32 13 37 13 59 0 72 -8 8
-15 24 -15 35 0 12 -3 18 -7 15 -3 -4 -13 -1 -22 7 -17 14 -84 30 -92 21z"/>
<path d="M8593 7324 c-36 -18 -63 -63 -63 -103 1 -34 33 -97 48 -93 7 1 12 -2
12 -7 0 -18 76 -36 85 -21 3 5 12 7 19 4 7 -3 16 2 19 10 4 9 13 16 21 16 7 0
17 10 21 23 11 32 12 37 15 40 16 20 -16 111 -47 130 -25 16 -100 16 -130 1z"/>
<path d="M6016 7299 c-24 -16 -47 -39 -51 -52 -7 -21 -9 -62 -5 -72 3 -7 7
-23 9 -35 2 -18 45 -50 68 -50 13 0 23 -4 23 -9 0 -6 9 -9 20 -8 11 1 20 5 20
9 0 4 9 5 19 3 36 -7 85 63 85 120 0 24 -34 85 -47 85 -8 0 -18 7 -21 16 -3 9
-12 14 -20 11 -8 -3 -17 -3 -20 1 -15 14 -38 8 -80 -19z"/>
<path d="M6355 7316 c-37 -21 -59 -46 -71 -83 -9 -24 -10 -41 -4 -47 6 -6 10
-18 10 -27 0 -10 12 -31 28 -47 24 -25 33 -28 86 -27 54 1 61 4 87 34 15 19
28 37 27 40 -1 3 2 14 6 24 5 9 5 25 0 35 -4 9 -6 20 -6 24 1 4 -16 25 -38 45
-41 39 -88 50 -125 29z"/>
<path d="M6675 7317 c-32 -18 -64 -50 -59 -59 3 -4 1 -8 -4 -8 -9 0 -10 -68
-1 -99 2 -8 17 -26 33 -41 24 -22 37 -26 81 -24 52 2 95 25 95 50 0 7 5 14 11
16 20 7 17 81 -5 115 -33 50 -107 75 -151 50z"/>
<path d="M6972 7301 c-38 -33 -50 -58 -46 -96 4 -49 8 -58 37 -88 36 -38 120
-44 153 -11 66 64 66 132 1 197 -33 33 -106 33 -145 -2z"/>
<path d="M7289 7301 c-31 -30 -45 -58 -43 -86 4 -79 46 -124 119 -129 25 -1
45 1 45 5 0 4 8 10 18 13 43 14 81 147 45 160 -7 3 -13 12 -13 19 0 20 -48 40
-100 42 -36 2 -50 -3 -71 -24z"/>
<path d="M7610 7304 c-39 -33 -56 -111 -30 -138 5 -5 6 -14 4 -20 -2 -6 14
-22 36 -36 57 -35 102 -30 147 15 19 19 36 40 37 47 1 7 5 18 8 23 4 6 3 17
-2 25 -4 7 -6 19 -3 27 3 7 0 13 -6 13 -6 0 -11 5 -11 11 0 7 -12 22 -26 34
-37 32 -115 31 -154 -1z"/>
<path d="M7935 7311 c-43 -35 -62 -114 -36 -145 6 -7 9 -15 6 -18 -3 -3 13
-18 35 -33 37 -26 64 -32 100 -24 19 5 81 65 84 81 1 7 5 18 9 25 4 6 3 14 -2
17 -5 3 -7 14 -5 24 3 9 -8 33 -25 53 -28 34 -34 36 -88 37 -40 0 -65 -5 -78
-17z"/>
<path d="M8126 7043 c-3 -4 -14 -7 -24 -8 -18 -1 -72 -33 -84 -49 -4 -6 -4
-14 -2 -18 3 -4 0 -8 -6 -8 -6 0 -8 -4 -5 -10 3 -5 2 -10 -3 -10 -5 0 -9 -7
-9 -15 0 -8 4 -15 9 -15 5 0 7 -4 4 -9 -10 -16 15 -69 40 -86 13 -8 24 -13 24
-9 0 4 6 1 14 -5 12 -10 34 -10 88 2 21 4 55 43 63 72 12 44 12 49 1 64 -6 8
-10 16 -8 18 9 13 -2 35 -23 45 -13 6 -22 16 -18 22 3 6 2 8 -2 3 -5 -4 -18
-1 -31 7 -12 8 -24 12 -28 9z"/>
<path d="M8405 7035 c-30 -15 -65 -48 -65 -60 0 -6 -5 -16 -12 -23 -14 -14
-18 -52 -5 -52 5 0 7 -6 4 -14 -8 -19 50 -86 68 -79 9 3 21 0 29 -6 10 -8 21
-8 41 -1 15 6 30 8 32 6 7 -7 48 35 57 59 15 38 17 65 4 65 -9 0 -8 3 2 10 12
7 12 10 1 10 -7 0 -11 6 -8 15 4 9 -9 26 -36 47 -22 18 -42 32 -44 31 -2 -2
-4 -3 -5 -2 -17 5 -47 3 -63 -6z"/>
<path d="M8702 7023 c-15 -13 -30 -23 -34 -23 -5 0 -8 -9 -8 -19 0 -11 -5 -23
-11 -26 -6 -4 -8 -13 -5 -21 3 -8 1 -14 -4 -14 -13 0 13 -57 41 -88 21 -24 32
-27 83 -27 50 0 63 4 85 25 29 27 29 28 35 83 2 20 0 37 -5 37 -4 0 -6 8 -5
18 2 9 -2 23 -10 30 -8 7 -14 11 -14 8 0 -2 -11 5 -24 17 -34 30 -89 30 -124
0z"/>
<path d="M7454 7029 c-3 -5 -10 -7 -15 -4 -5 4 -12 -1 -15 -9 -3 -9 -12 -16
-20 -16 -8 0 -14 -4 -14 -10 0 -5 -10 -20 -21 -31 -17 -17 -19 -23 -8 -30 9
-5 10 -9 2 -9 -29 0 21 -103 58 -119 40 -17 79 -23 79 -11 0 5 3 9 8 8 4 -2
21 3 39 10 29 13 38 29 49 80 1 8 5 16 8 19 3 3 -1 18 -10 34 -8 16 -11 29 -8
29 4 0 -1 9 -11 20 -10 11 -22 17 -26 14 -5 -3 -9 -1 -9 4 0 13 -79 32 -86 21z"/>
<path d="M7768 7032 c-16 -2 -28 -10 -28 -18 0 -8 -6 -14 -13 -14 -16 0 -49
-55 -53 -87 -1 -13 2 -23 7 -23 6 0 8 -4 4 -9 -3 -5 0 -16 7 -23 7 -8 18 -23
24 -33 6 -11 15 -20 20 -21 5 0 17 -4 27 -9 25 -11 87 1 116 23 26 19 55 98
39 108 -5 3 -7 12 -5 19 3 6 -3 25 -14 41 -10 16 -19 25 -19 20 0 -5 -8 -2
-18 7 -19 18 -53 25 -94 19z"/>
<path d="M6505 7020 c-11 -4 -23 -6 -27 -3 -5 2 -8 -1 -8 -7 0 -6 -3 -9 -8 -6
-22 13 -72 -63 -72 -109 0 -15 9 -39 20 -55 11 -15 16 -31 12 -35 -4 -5 -1 -5
6 -1 7 4 23 -2 38 -13 28 -22 60 -20 111 7 72 37 74 173 3 202 -16 7 -32 11
-36 10 -4 -1 -10 3 -13 8 -3 5 -15 6 -26 2z"/>
<path d="M6815 7021 c-6 -6 -22 -12 -35 -14 -16 -3 -32 -17 -47 -42 -45 -81 1
-169 97 -187 31 -6 97 33 112 65 33 73 -6 167 -72 173 -8 1 -22 5 -30 8 -9 4
-20 2 -25 -3z"/>
<path d="M7092 7007 c-17 -10 -32 -25 -32 -32 0 -7 -6 -18 -14 -24 -16 -13
-15 -89 1 -99 5 -4 15 -17 22 -29 6 -13 15 -22 19 -21 4 1 17 -3 29 -10 40
-22 130 6 139 44 3 13 10 24 14 24 12 0 6 86 -8 102 -6 8 -9 17 -6 20 9 10
-81 48 -107 46 -13 -1 -39 -10 -57 -21z"/>
<path d="M6157 7008 c-9 -5 -21 -7 -26 -4 -7 5 -43 -36 -47 -54 0 -3 -4 -13
-8 -23 -5 -9 -6 -26 -3 -37 3 -11 0 -20 -6 -20 -7 0 -5 -5 4 -10 9 -5 20 -22
23 -36 4 -15 10 -24 13 -20 4 3 13 0 22 -8 21 -17 81 -37 81 -27 0 5 11 12 25
15 14 4 25 11 25 17 0 6 4 8 9 4 12 -7 40 50 43 86 3 36 -20 85 -47 103 -30
20 -86 27 -108 14z"/>
<path d="M8845 6740 c-3 -5 -12 -7 -20 -3 -8 3 -15 0 -15 -6 0 -6 -3 -10 -7
-9 -25 5 -63 -37 -65 -72 0 -3 -4 -13 -9 -22 -7 -12 -6 -18 1 -18 6 0 9 -4 6
-9 -10 -16 22 -66 55 -85 37 -22 85 -30 94 -16 4 6 11 8 16 5 5 -4 9 -2 9 4 0
5 9 13 20 16 11 4 18 10 15 15 -3 4 2 13 10 20 8 7 12 16 9 21 -3 5 -1 9 5 9
14 0 3 71 -14 90 -8 9 -13 19 -10 22 3 3 -9 11 -27 17 -18 7 -41 17 -50 22
-10 5 -19 5 -23 -1z"/>
<path d="M8197 6734 c-2 -3 -15 -7 -28 -9 -20 -4 -90 -65 -75 -65 3 0 2 -10
-3 -22 -5 -14 -3 -37 5 -60 7 -20 10 -39 7 -42 -4 -3 0 -6 7 -6 7 0 21 -7 30
-15 29 -26 75 -35 103 -20 14 7 28 11 31 7 3 -3 6 2 6 12 0 9 4 15 8 12 9 -5
37 46 45 81 5 24 -44 113 -63 113 -16 0 -23 2 -46 11 -12 4 -24 6 -27 3z"/>
<path d="M8500 6730 c-8 -5 -17 -7 -21 -4 -14 9 -58 -49 -64 -86 -10 -57 11
-104 57 -130 21 -12 38 -18 38 -14 0 3 6 1 14 -5 10 -9 16 -9 21 -1 4 6 12 9
18 7 17 -6 87 71 88 96 2 39 -3 62 -16 77 -8 8 -13 18 -12 21 3 8 -26 34 -43
37 -38 9 -68 9 -80 2z"/>
<path d="M6231 6709 c-9 -9 -26 -21 -38 -28 -14 -7 -20 -17 -17 -26 4 -8 1
-15 -6 -15 -7 0 -10 -7 -7 -15 4 -8 2 -17 -4 -21 -6 -4 -6 -11 2 -20 6 -8 8
-14 4 -14 -4 0 -2 -7 5 -15 7 -8 9 -15 4 -15 -4 0 5 -13 21 -30 16 -16 31 -28
33 -25 3 2 14 0 25 -6 15 -9 18 -8 12 3 -6 10 -5 10 5 1 9 -8 20 -9 39 -2 14
6 26 10 26 9 0 -1 8 2 18 5 9 4 17 13 17 21 0 8 4 14 9 14 5 0 13 10 17 22 11
35 13 78 3 78 -5 0 -11 11 -15 24 -3 13 -16 28 -30 35 -13 6 -24 15 -24 21 0
5 -3 9 -7 9 -5 -1 -10 0 -13 1 -22 9 -66 3 -79 -11z"/>
<path d="M6560 6716 c0 -5 -3 -7 -6 -3 -14 13 -80 -86 -69 -103 3 -6 1 -10 -6
-10 -10 0 -10 -3 -1 -12 7 -7 12 -19 12 -27 0 -9 12 -29 26 -46 22 -26 33 -30
80 -31 45 -2 60 2 84 23 17 14 30 33 30 44 0 10 4 19 10 19 14 0 3 72 -12 82
-7 4 -9 8 -4 8 9 0 -52 59 -63 61 -37 5 -81 3 -81 -5z"/>
<path d="M6871 6712 c-17 -8 -31 -18 -31 -23 0 -5 -7 -9 -16 -9 -10 0 -14 -6
-11 -14 3 -7 -1 -23 -9 -35 -8 -11 -12 -21 -7 -21 4 0 9 -16 10 -35 2 -21 13
-44 30 -62 24 -23 37 -27 86 -28 55 -2 60 0 87 33 16 20 27 39 24 44 -3 4 -1
8 4 8 5 0 9 16 9 35 0 19 -4 35 -9 35 -4 0 -8 6 -8 13 0 8 -9 24 -20 37 -11
13 -20 20 -20 15 0 -4 -6 -2 -14 4 -21 18 -72 19 -105 3z"/>
<path d="M7199 6722 c-21 -7 -62 -51 -67 -70 -9 -39 -2 -122 10 -122 4 0 19
-11 33 -24 36 -33 115 -31 148 5 28 30 47 66 47 91 0 25 -27 78 -52 101 -18
18 -88 29 -119 19z"/>
<path d="M7482 6693 c-18 -18 -31 -37 -27 -43 3 -5 3 -10 -2 -10 -4 0 -8 -16
-8 -35 0 -19 3 -35 8 -35 4 0 7 -7 7 -16 0 -8 14 -27 32 -42 47 -39 111 -38
154 3 17 16 30 33 28 37 -3 4 0 9 6 13 15 9 12 68 -6 93 -8 12 -12 22 -8 22 4
0 -6 10 -22 22 -20 16 -42 23 -78 23 -43 1 -54 -4 -84 -32z"/>
<path d="M7828 6716 c-39 -14 -69 -86 -56 -135 24 -86 125 -125 183 -71 14 13
25 19 25 14 1 -15 28 53 31 78 3 25 -21 88 -34 88 -5 0 -5 5 -2 10 3 6 -1 10
-9 10 -9 0 -16 3 -16 8 0 11 -91 10 -122 -2z"/>
<path d="M7950 6439 c0 -6 -5 -7 -10 -4 -12 7 -57 -19 -78 -44 -30 -36 -40
-74 -29 -105 6 -17 16 -37 23 -43 7 -7 14 -18 16 -24 5 -14 61 -24 115 -20 40
2 93 74 85 114 -1 4 -4 22 -6 39 -2 18 -9 34 -17 37 -7 2 -20 12 -29 21 -20
22 -70 43 -70 29z"/>
<path d="M8250 6438 c0 -4 -7 -8 -15 -8 -19 0 -77 -54 -68 -63 3 -4 1 -7 -6
-7 -7 0 -10 -4 -6 -9 3 -5 1 -12 -4 -16 -27 -16 36 -122 78 -131 14 -3 31 -7
38 -9 7 -2 15 0 18 4 3 5 13 7 23 5 22 -6 80 45 77 69 -2 9 0 17 4 17 4 0 5
21 1 46 -5 35 -15 53 -40 74 -19 16 -36 29 -39 28 -3 0 -8 1 -11 2 -16 6 -50
5 -50 -2z"/>
<path d="M8516 6406 c-38 -38 -46 -52 -46 -82 0 -36 29 -90 59 -109 9 -5 39
-10 68 -11 45 -2 55 1 83 28 29 27 32 35 31 90 0 52 -3 62 -27 80 -14 12 -31
27 -37 33 -8 8 -21 10 -38 5 -15 -5 -31 -4 -37 2 -6 6 -26 -7 -56 -36z"/>
<path d="M8885 6442 c-11 -2 -36 -21 -55 -41 -55 -59 -52 -115 12 -172 24 -22
37 -26 81 -25 43 2 57 7 81 31 25 25 29 36 28 87 0 52 -4 62 -29 85 -28 27
-81 42 -118 35z"/>
<path d="M9205 6442 c-11 -2 -31 -14 -43 -25 -65 -60 -64 -125 3 -187 31 -29
99 -37 130 -15 55 39 57 43 60 101 2 50 -2 61 -27 89 -28 33 -73 46 -123 37z"/>
<path d="M7280 6427 c0 -5 -4 -5 -10 -2 -5 3 -10 2 -10 -3 0 -5 -11 -14 -25
-20 -14 -6 -25 -18 -25 -26 0 -7 -6 -18 -13 -24 -11 -10 -14 -32 -8 -78 2 -17
70 -89 77 -81 4 3 14 2 23 -2 10 -6 31 -4 54 4 20 7 37 10 37 7 0 -10 34 42
38 58 12 48 13 90 2 90 -6 0 -8 4 -5 10 7 12 -44 62 -55 55 -5 -3 -10 0 -12 6
-5 14 -68 19 -68 6z"/>
<path d="M7600 6428 c0 -6 -3 -8 -6 -5 -9 9 -55 -29 -70 -58 -12 -23 -19 -62
-14 -77 1 -5 3 -13 4 -18 0 -6 6 -14 11 -18 6 -4 15 -16 21 -27 6 -11 15 -19
20 -18 5 1 14 -3 21 -9 7 -5 17 -7 23 -3 5 3 10 0 10 -7 0 -8 3 -9 8 -3 4 6
16 10 27 11 38 2 50 9 72 44 41 64 21 154 -40 179 -43 18 -87 22 -87 9z"/>
<path d="M6627 6414 c-15 -8 -32 -12 -37 -9 -4 3 -12 -5 -15 -17 -4 -13 -13
-30 -19 -38 -21 -25 -17 -70 9 -113 14 -23 25 -39 25 -34 0 4 10 1 23 -8 13
-8 27 -12 30 -8 4 3 7 1 7 -4 0 -9 20 -11 40 -3 3 1 8 2 13 1 4 0 7 4 7 9 0 6
7 10 15 10 9 0 26 12 39 27 19 22 23 36 20 81 -2 58 -19 82 -71 104 -44 17
-56 18 -86 2z"/>
<path d="M6948 6423 c-10 -3 -18 -9 -18 -14 0 -5 -7 -9 -15 -9 -9 0 -20 -11
-25 -24 -5 -13 -14 -27 -20 -31 -5 -3 -8 -11 -4 -16 3 -5 0 -16 -6 -24 -9 -11
-9 -15 -1 -15 6 0 11 -9 11 -20 0 -11 5 -20 10 -20 6 0 10 -5 10 -11 0 -6 7
-17 15 -25 8 -9 15 -12 15 -8 0 3 7 0 17 -7 17 -15 93 -20 93 -7 0 4 6 8 14 8
8 0 26 14 40 30 21 25 25 39 22 78 -4 63 -12 79 -47 94 -16 7 -29 16 -29 19 0
7 -57 8 -82 2z"/>
<path d="M6281 6404 c-36 -18 -65 -84 -57 -128 4 -20 11 -36 16 -36 6 0 10 -9
10 -21 0 -12 5 -19 13 -16 6 2 19 -2 28 -10 19 -16 89 -25 89 -11 0 5 4 7 8 4
16 -10 72 52 73 81 0 15 2 40 3 56 1 15 -1 27 -4 27 -4 0 -13 11 -20 25 -8 14
-19 24 -26 21 -7 -3 -14 0 -17 7 -5 16 -86 17 -116 1z"/>
<path d="M9290 6150 c-7 -5 -18 -6 -24 -4 -21 7 -75 -50 -81 -85 -3 -19 -8
-38 -11 -43 -3 -4 0 -8 6 -8 6 0 9 -8 6 -17 -7 -23 24 -60 58 -69 14 -3 26
-10 26 -14 0 -23 117 16 125 41 4 10 11 19 16 19 5 0 8 3 8 8 -1 4 0 9 1 12 7
16 6 62 -2 66 -4 3 -6 10 -3 15 4 5 1 9 -5 9 -6 0 -8 5 -5 10 3 6 1 10 -5 10
-6 0 -9 4 -6 9 3 5 -2 11 -12 14 -9 4 -31 13 -48 21 -18 8 -37 10 -44 6z"/>
<path d="M8299 6133 c-40 -17 -81 -52 -73 -64 3 -5 0 -17 -5 -27 -16 -31 10
-101 45 -121 16 -9 31 -18 34 -21 11 -11 71 -4 79 9 5 8 16 11 25 8 14 -6 18
-1 15 19 0 3 10 14 22 25 12 10 19 19 15 19 -4 0 -2 8 3 18 7 12 4 31 -11 64
-16 39 -27 49 -67 66 -43 18 -51 18 -82 5z"/>
<path d="M8616 6135 c-7 -7 -22 -15 -32 -17 -28 -5 -54 -91 -41 -135 6 -18 14
-33 19 -33 5 0 6 -4 3 -10 -3 -5 0 -10 8 -10 8 0 19 -6 25 -13 25 -30 152 -7
152 27 0 7 7 19 15 26 31 26 4 139 -35 148 -8 2 -17 8 -20 12 -10 16 -79 19
-94 5z"/>
<path d="M8938 6143 c-1 -5 -16 -16 -33 -25 -17 -10 -29 -24 -27 -33 2 -8 -2
-15 -9 -15 -6 0 -9 -7 -5 -15 3 -8 1 -15 -3 -15 -11 0 6 -70 22 -90 55 -70
165 -57 205 23 22 44 21 78 -3 107 -7 8 -15 23 -18 33 -4 10 -11 15 -17 12 -6
-3 -17 1 -26 9 -16 16 -80 22 -86 9z"/>
<path d="M7680 6133 c-8 -3 -22 -7 -30 -10 -8 -4 -18 -5 -22 -5 -8 2 -41 -44
-45 -62 -1 -6 -4 -21 -7 -34 -6 -28 18 -98 33 -94 6 1 11 -2 11 -8 0 -5 7 -10
15 -10 8 0 15 -5 15 -10 0 -7 19 -10 45 -9 25 2 45 6 45 10 0 4 8 10 18 13 22
7 66 72 58 85 -4 5 -2 12 4 16 11 6 -3 35 -32 69 -10 11 -18 24 -18 30 0 5 -3
6 -7 3 -3 -4 -11 -3 -17 2 -15 12 -48 19 -66 14z"/>
<path d="M7958 6119 c-31 -16 -70 -59 -54 -59 3 0 1 -12 -5 -27 -16 -43 24
-117 72 -132 28 -9 93 -4 97 7 2 7 9 12 15 12 18 0 70 84 59 95 -3 3 -8 18
-10 33 -2 15 -10 31 -18 35 -8 4 -14 15 -14 22 0 8 -8 15 -18 15 -10 0 -22 3
-26 7 -14 14 -62 10 -98 -8z"/>
<path d="M6649 6097 c-29 -27 -34 -39 -36 -85 -2 -69 0 -74 50 -109 39 -28 45
-29 86 -19 70 18 130 111 98 154 -5 6 -7 12 -4 12 3 0 -6 13 -21 29 -15 17
-29 30 -32 30 -3 0 -17 4 -32 10 -17 6 -29 7 -33 1 -4 -7 -13 -7 -24 0 -15 7
-26 3 -52 -23z"/>
<path d="M7020 6122 c-46 -5 -80 -43 -85 -95 -5 -50 11 -107 31 -107 8 0 14
-6 14 -14 0 -9 7 -13 20 -11 11 2 20 0 20 -6 0 -13 47 -11 73 2 28 14 66 57
78 86 8 23 3 74 -10 83 -4 3 -15 16 -24 29 -9 14 -22 26 -29 27 -40 8 -56 9
-88 6z"/>
<path d="M7325 6122 c-21 -5 -66 -47 -63 -60 1 -4 -2 -19 -6 -34 -12 -42 10
-94 51 -119 45 -28 83 -32 105 -12 10 9 18 13 18 9 0 -11 60 57 61 69 1 5 3
21 5 35 1 14 -6 37 -17 52 -10 15 -19 31 -19 36 0 5 -17 14 -37 21 -37 11 -55
11 -98 3z"/>
<path d="M6318 6087 c-24 -25 -28 -39 -28 -87 0 -52 3 -59 36 -89 20 -18 42
-30 50 -27 8 3 14 1 14 -5 0 -6 6 -7 16 -1 9 5 25 7 34 5 11 -3 30 10 54 38
28 33 36 51 36 81 0 21 -5 44 -10 51 -6 7 -18 23 -29 36 -16 21 -27 25 -82 26
-59 1 -66 -1 -91 -28z"/>
<path d="M8984 5838 c-3 -5 -9 -6 -14 -3 -5 3 -21 -8 -37 -23 -31 -32 -38 -58
-30 -122 3 -30 31 -73 40 -63 4 3 7 2 7 -4 0 -27 87 -35 122 -11 14 10 31 18
38 18 6 0 9 4 5 9 -3 5 2 16 10 25 9 8 16 18 15 21 0 3 0 6 1 8 6 14 4 57 -3
57 -4 0 -8 8 -8 18 0 26 -43 64 -74 66 -14 0 -26 3 -26 6 0 9 -41 7 -46 -2z"/>
<path d="M9310 5840 c0 -5 -6 -7 -14 -4 -7 3 -27 -7 -43 -23 -23 -22 -29 -36
-28 -65 0 -21 -4 -38 -9 -38 -6 0 -5 -5 2 -12 7 -7 12 -18 12 -25 0 -23 33
-52 77 -67 37 -13 43 -13 72 5 18 11 36 17 41 14 5 -3 14 11 21 30 7 19 16 35
20 35 25 0 -26 138 -52 141 -13 2 -29 6 -31 9 -9 7 -68 7 -68 0z"/>
<path d="M6760 5832 c0 -4 -10 -8 -22 -9 -11 -1 -25 -8 -29 -15 -5 -7 -12 -13
-17 -13 -15 0 -37 -29 -38 -50 -1 -11 -3 -27 -5 -35 -6 -31 14 -80 40 -100
118 -83 269 60 173 165 -27 30 -102 72 -102 57z"/>
<path d="M7070 5832 c-39 -11 -90 -56 -90 -78 0 -12 -4 -25 -9 -29 -6 -3 -6
-17 1 -35 5 -17 7 -37 4 -45 -3 -8 0 -15 6 -15 6 0 19 -6 27 -14 20 -18 93
-38 101 -28 3 4 14 8 25 7 22 0 45 17 45 35 0 6 5 8 12 4 6 -4 8 -3 4 4 -3 6
0 16 7 24 14 14 17 56 4 76 -5 6 -5 12 -1 12 5 0 -11 17 -33 39 -41 38 -74 52
-103 43z"/>
<path d="M7360 5823 c-14 -7 -20 -13 -15 -13 6 0 -1 -6 -14 -13 -13 -6 -22
-15 -20 -18 2 -3 -1 -12 -7 -20 -22 -27 -4 -139 22 -139 8 0 17 -6 20 -14 3
-8 13 -13 22 -11 9 1 20 -3 24 -9 5 -7 8 -7 8 0 0 5 14 9 30 8 17 -1 37 5 45
13 8 8 15 11 15 6 0 -4 9 6 19 22 28 43 34 95 14 117 -9 10 -13 18 -9 18 8 0
-55 59 -64 61 -35 6 -70 3 -90 -8z"/>
<path d="M7686 5829 c-51 -30 -76 -72 -70 -119 2 -19 5 -45 6 -57 1 -13 6 -23
12 -23 5 0 17 -7 27 -16 10 -9 39 -17 69 -18 57 -3 93 17 112 63 14 33 18 91
7 91 -5 0 -9 6 -9 13 0 8 -14 26 -31 41 -33 30 -93 42 -123 25z"/>
<path d="M7987 5814 c-11 -13 -24 -21 -29 -18 -4 3 -8 -6 -8 -20 0 -14 -4 -28
-10 -31 -11 -7 -9 -67 3 -76 4 -3 9 -15 10 -27 0 -11 5 -18 11 -15 5 3 15 -2
21 -11 18 -24 97 -28 132 -6 30 18 82 100 63 100 -6 0 -8 4 -5 10 9 14 -30 83
-57 100 -13 8 -43 15 -67 16 -34 1 -48 -4 -64 -22z"/>
<path d="M8318 5832 c-10 -2 -18 -10 -18 -18 0 -8 -5 -14 -10 -14 -11 0 -28
-37 -34 -74 -2 -11 2 -36 10 -53 7 -18 10 -33 6 -33 -4 0 7 -10 25 -21 29 -18
61 -24 114 -20 36 2 107 101 91 126 -4 5 -7 12 -7 15 -2 21 -33 71 -47 76 -10
3 -18 9 -18 13 0 7 -82 10 -112 3z"/>
<path d="M8618 5812 c-14 -15 -29 -36 -33 -47 -11 -27 -8 -89 5 -93 6 -2 8 -7
5 -12 -7 -12 27 -46 55 -55 37 -12 83 -12 98 0 17 13 44 39 58 57 14 17 23 88
12 88 -4 0 -8 6 -8 14 0 8 -13 27 -28 43 -24 23 -38 28 -84 29 -49 2 -59 -1
-80 -24z"/>
<path d="M6410 5819 c0 -4 -10 -11 -22 -15 -28 -9 -44 -24 -52 -52 -3 -12 -9
-32 -12 -43 -3 -12 -2 -19 3 -16 5 3 8 -8 7 -25 -2 -29 27 -73 40 -60 3 3 6 0
6 -6 0 -7 9 -12 20 -12 11 0 20 -5 20 -11 0 -8 6 -7 17 2 15 12 16 12 8 -1 -7
-12 -6 -13 7 -3 8 7 18 10 21 6 4 -3 13 0 21 6 8 7 19 10 24 7 6 -3 13 6 16
19 4 14 11 23 16 20 6 -3 10 3 10 14 0 11 4 22 9 25 13 9 0 58 -26 96 -12 19
-23 30 -23 25 0 -6 -5 -3 -10 5 -5 8 -14 16 -20 16 -5 1 -13 3 -17 4 -17 7
-63 5 -63 -1z"/>
<path d="M9351 5547 c-47 -15 -79 -47 -86 -87 -3 -18 -8 -37 -11 -42 -3 -4 -1
-8 4 -8 5 0 8 -10 7 -22 -1 -15 11 -35 32 -54 28 -26 41 -31 81 -30 26 1 57 8
70 16 29 18 59 76 57 110 -2 28 -24 80 -35 80 -3 0 -16 9 -28 20 -12 12 -22
18 -22 15 0 -3 -8 -2 -17 3 -11 5 -32 5 -52 -1z"/>
<path d="M8709 5538 c-44 -11 -83 -46 -87 -78 -2 -14 -5 -35 -7 -47 -2 -13 1
-23 7 -23 5 0 7 -8 4 -17 -8 -20 50 -77 70 -69 7 3 16 1 19 -4 3 -6 15 -6 30
0 16 6 25 5 27 -2 6 -16 71 53 84 89 9 25 8 39 -11 82 -11 28 -25 48 -29 44
-4 -5 -13 -1 -19 8 -16 21 -45 27 -88 17z"/>
<path d="M9026 5543 c-10 -3 -24 -9 -30 -14 -6 -5 -19 -15 -28 -22 -10 -7 -20
-23 -22 -37 -3 -14 -5 -25 -6 -25 -1 0 -3 -12 -4 -27 -1 -16 2 -28 6 -28 4 0
8 -11 8 -24 0 -16 7 -27 20 -31 11 -3 20 -12 20 -20 0 -10 16 -13 63 -11 72 1
100 19 119 75 16 48 16 61 -3 93 -31 54 -91 83 -143 71z"/>
<path d="M8060 5528 c0 -5 -4 -7 -9 -4 -12 8 -71 -51 -72 -72 0 -9 -2 -25 -4
-35 -5 -24 17 -79 39 -99 41 -39 158 -29 171 14 4 10 11 18 16 18 6 0 7 5 4
10 -3 6 -1 10 6 10 7 0 9 3 6 6 -3 4 -2 15 3 25 7 12 7 20 0 24 -5 3 -10 15
-10 26 0 10 -4 19 -9 19 -5 0 -11 9 -14 20 -3 11 -18 25 -34 31 -38 14 -93 19
-93 7z"/>
<path d="M8373 5533 c-44 -8 -82 -64 -74 -107 1 -5 -4 -13 -11 -17 -10 -7 -10
-9 0 -9 6 0 12 -10 12 -23 0 -26 45 -74 73 -76 31 -3 62 -3 85 0 26 4 75 55
66 70 -3 5 -1 9 4 9 6 0 9 20 8 45 0 25 -4 45 -9 45 -4 0 -12 12 -18 26 -5 15
-12 24 -16 20 -3 -3 -12 -1 -20 5 -15 13 -65 19 -100 12z"/>
<path d="M6774 5518 c-3 -5 -10 -6 -15 -3 -5 4 -9 1 -9 -4 0 -6 -6 -11 -13
-11 -15 0 -42 -40 -39 -57 2 -7 -1 -13 -6 -13 -5 0 -7 -12 -5 -27 2 -16 5 -37
6 -48 2 -23 9 -30 56 -64 19 -13 30 -17 26 -10 -7 11 -6 12 6 3 12 -9 28 -10
70 -5 5 0 7 6 4 11 -3 6 3 10 15 10 11 0 24 8 27 18 4 9 13 23 20 30 7 8 11
18 8 23 -4 5 -2 9 2 9 5 0 7 16 5 35 -2 19 -8 35 -12 35 -4 0 -13 13 -20 30
-7 16 -16 27 -20 25 -5 -3 -11 -1 -15 4 -3 5 -14 8 -25 6 -11 -2 -20 -1 -20 3
0 10 -40 10 -46 0z"/>
<path d="M7097 5518 c-10 -5 -20 -7 -25 -5 -8 4 -45 -34 -51 -54 -24 -80 2
-146 68 -170 42 -15 45 -15 93 8 28 13 48 27 45 30 -4 3 1 12 9 20 8 8 12 19
9 24 -4 5 -2 9 2 9 5 0 9 11 9 25 0 14 -4 25 -9 25 -4 0 -6 4 -3 8 3 5 -4 19
-15 30 -11 12 -16 22 -12 22 15 0 -15 21 -38 26 -48 11 -66 12 -82 2z"/>
<path d="M7402 5519 c-42 -16 -66 -54 -71 -111 -2 -24 2 -38 9 -38 7 0 10 -7
6 -15 -6 -16 28 -58 38 -47 3 3 6 1 6 -5 0 -5 7 -11 15 -12 47 -6 81 -6 86 2
3 4 16 9 27 10 12 1 22 5 22 9 0 17 3 24 20 45 21 27 18 92 -4 109 -9 6 -16
16 -16 22 0 14 -35 34 -44 25 -3 -3 -6 -2 -6 4 0 13 -56 14 -88 2z"/>
<path d="M7705 5511 c-92 -62 -55 -212 55 -221 14 -1 28 -1 33 0 14 5 27 8 40
9 17 2 60 70 64 102 3 33 -39 111 -63 117 -62 14 -100 12 -129 -7z"/>
<path d="M6400 5486 c-13 -16 -26 -36 -27 -45 -8 -40 -8 -71 0 -71 4 0 6 -4 3
-9 -18 -28 65 -91 114 -87 32 3 90 33 90 47 0 6 7 17 16 26 8 9 13 22 10 29
-3 8 -1 14 3 14 13 0 -11 71 -26 77 -7 3 -13 9 -13 15 0 22 -28 33 -85 33 -55
1 -63 -2 -85 -29z"/>
<path d="M9048 5231 c-48 -20 -91 -103 -70 -135 4 -6 7 -13 7 -16 7 -48 73
-92 127 -83 18 3 35 8 38 12 3 5 11 10 18 12 16 5 66 89 53 89 -6 0 -8 6 -5
14 6 16 -21 79 -40 95 -7 6 -26 12 -42 14 -17 2 -34 6 -39 9 -6 2 -27 -2 -47
-11z"/>
<path d="M7136 5225 c-6 -5 -23 -16 -38 -24 -15 -8 -32 -27 -38 -44 -12 -35
-13 -90 -2 -101 4 -4 7 -11 7 -15 0 -4 13 -19 29 -34 47 -43 129 -35 166 17 8
12 13 23 11 25 -1 2 3 7 10 12 16 10 13 80 -4 91 -7 4 -9 8 -5 8 12 0 -39 50
-51 50 -6 0 -11 5 -11 11 0 5 -4 7 -10 4 -5 -3 -10 -2 -10 2 0 12 -41 11 -54
-2z"/>
<path d="M7450 5229 c0 -5 -4 -9 -10 -9 -15 0 -50 -38 -50 -55 0 -8 -5 -15
-11 -15 -5 0 -8 -4 -4 -9 3 -5 0 -13 -6 -17 -8 -4 -7 -9 2 -16 10 -7 11 -11 2
-14 -13 -6 9 -53 38 -84 21 -22 77 -42 84 -30 3 5 12 7 20 4 8 -3 24 4 36 15
13 12 25 21 28 21 10 0 33 60 36 91 1 16 -4 34 -11 40 -8 6 -14 18 -14 25 0 8
-4 14 -8 14 -5 0 -18 9 -29 19 -21 20 -103 35 -103 20z"/>
<path d="M7779 5229 c-28 -7 -69 -42 -69 -59 0 -6 -5 -19 -11 -29 -8 -11 -9
-29 -4 -47 5 -16 9 -32 10 -36 2 -5 3 -15 4 -23 0 -8 5 -14 10 -12 5 1 16 -6
23 -17 17 -21 108 -36 108 -17 0 7 4 10 9 7 8 -6 70 56 72 72 0 4 2 18 3 32 4
34 -6 59 -41 98 -31 34 -68 44 -114 31z"/>
<path d="M8082 5229 c-11 -4 -22 -14 -25 -23 -4 -9 -13 -16 -22 -16 -8 0 -16
-10 -17 -22 -4 -72 -3 -105 7 -121 12 -22 66 -56 97 -62 25 -6 78 12 78 26 0
5 6 9 13 9 15 1 47 63 47 93 0 12 -7 33 -16 45 -8 12 -12 22 -8 22 14 0 -51
50 -66 51 -8 0 -27 2 -42 3 -15 1 -36 -2 -46 -5z"/>
<path d="M8374 5210 c-18 -14 -32 -29 -31 -35 0 -5 -2 -23 -6 -38 -11 -39 10
-108 34 -114 10 -3 19 -9 19 -14 0 -11 73 -31 80 -21 3 4 14 9 25 10 11 2 22
8 23 13 2 5 9 9 15 9 13 0 39 52 45 88 4 31 -26 90 -56 110 -39 26 -108 22
-148 -8z"/>
<path d="M8694 5208 c-17 -15 -32 -35 -33 -45 -3 -30 -2 -77 2 -98 5 -24 74
-74 103 -75 31 0 85 21 78 31 -3 5 2 6 10 3 14 -6 21 5 17 29 0 4 4 7 9 7 6 0
10 9 10 20 0 11 4 20 9 20 12 0 0 44 -23 88 -9 18 -21 30 -26 27 -4 -3 -10 0
-12 7 -3 7 -27 12 -58 12 -46 1 -59 -3 -86 -26z"/>
<path d="M6526 5223 c-2 -2 -17 -6 -32 -8 -16 -1 -30 -8 -32 -14 -2 -6 -9 -11
-17 -11 -13 0 -33 -39 -38 -80 -8 -51 37 -126 78 -130 81 -9 123 10 153 70 15
30 12 87 -5 102 -7 6 -13 17 -13 24 0 8 -7 14 -15 14 -8 0 -15 5 -15 11 0 5
-4 7 -10 4 -5 -3 -10 -2 -10 3 0 10 -36 23 -44 15z"/>
<path d="M6815 5220 c-4 -6 -11 -8 -16 -5 -5 4 -9 2 -9 -3 0 -5 -11 -14 -24
-21 -23 -13 -38 -51 -38 -96 0 -31 23 -85 36 -85 6 0 17 -9 24 -20 7 -12 18
-18 25 -13 6 4 26 6 44 4 37 -3 67 15 94 56 23 34 25 96 4 113 -8 7 -12 16
-10 21 7 11 -76 59 -103 59 -11 0 -24 -5 -27 -10z"/>
<path d="M9267 4699 c-75 -18 -152 -59 -187 -100 -60 -70 -85 -113 -106 -191
-22 -80 -27 -292 -9 -346 7 -20 15 -51 18 -68 5 -32 41 -109 62 -134 8 -8 14
-19 14 -23 0 -22 117 -147 282 -302 96 -91 163 -172 185 -224 8 -20 15 -37 14
-39 0 -1 7 -16 16 -33 12 -24 15 -52 12 -114 -3 -74 -6 -88 -34 -126 -34 -47
-42 -50 -130 -53 -71 -1 -103 13 -129 57 -25 41 -25 42 -28 172 l-3 110 -150
0 -149 0 0 -110 c0 -159 11 -216 59 -314 38 -78 150 -173 216 -184 14 -2 34
-8 45 -13 31 -14 284 -10 325 5 112 42 164 82 222 171 20 30 43 84 53 120 23
86 27 265 8 350 -16 71 -78 205 -121 260 -28 37 -175 186 -252 257 -167 153
-230 264 -230 406 0 75 14 118 53 160 24 25 32 27 106 27 77 0 80 -1 106 -32
38 -45 47 -72 54 -163 l6 -80 135 -1 c74 0 140 3 146 8 15 11 9 153 -11 239
-38 169 -150 277 -323 314 -94 19 -177 18 -275 -6z"/>
<path d="M6339 4695 c-1 0 -3 -455 -4 -1012 l-1 -1011 320 2 c340 3 356 5 446
54 45 24 143 112 135 120 -2 3 5 16 15 30 11 13 20 28 20 33 0 4 5 20 12 36
14 33 16 45 22 98 7 60 7 1200 1 1270 -6 61 -51 185 -67 185 -5 0 -7 4 -3 10
3 5 -16 31 -43 58 -54 55 -151 106 -222 118 -31 5 -612 14 -631 9z m570 -304
c42 -23 59 -44 72 -91 18 -64 20 -1141 2 -1219 -14 -65 -52 -108 -102 -118
-30 -5 -145 -8 -211 -4 -14 1 -16 82 -16 719 0 394 4 720 8 723 18 12 223 3
247 -10z"/>
<path d="M7465 4690 c-2 -3 -3 -458 -3 -1011 l0 -1006 159 0 159 0 0 1011 0
1011 -156 0 c-85 0 -157 -2 -159 -5z"/>
<path d="M7959 4695 c-1 0 -2 -454 -3 -1008 -1 -1001 -1 -1008 19 -1012 11 -3
207 -3 434 -2 l415 2 0 133 c1 74 -1 137 -4 142 -3 4 -120 8 -260 8 -140 0
-262 1 -271 1 -15 1 -17 30 -17 284 0 155 2 289 4 297 3 13 36 15 221 15 l217
0 1 143 c0 135 -1 142 -20 143 -11 0 -110 2 -220 2 l-200 2 -1 277 c0 191 3
278 10 281 6 2 129 3 273 3 167 -1 264 3 266 9 2 9 1 209 -2 260 -1 20 -7 20
-431 20 -236 0 -431 0 -431 0z"/>
</g>
</svg>
